<svg width="623" height="308" viewBox="0 0 623 308" fill="none" xmlns="http://www.w3.org/2000/svg">
<g clip-path="url(#clip0)">
<path d="M357.225 301.413C353.369 301.411 349.672 299.879 346.947 297.156C344.221 294.433 342.69 290.741 342.69 286.891C342.69 283.041 344.221 279.349 346.947 276.625C349.672 273.902 353.369 272.371 357.225 272.368H573.276C572.189 270.377 570.585 268.714 568.633 267.555C566.68 266.396 564.451 265.783 562.179 265.782H132.728C127.125 265.788 121.754 268.015 117.795 271.973C113.835 275.931 111.612 281.297 111.612 286.891C111.615 292.484 113.84 297.847 117.798 301.805C121.757 305.762 127.126 307.99 132.728 308H562.179C564.451 307.998 566.68 307.386 568.633 306.227C570.585 305.068 572.189 303.405 573.276 301.413L357.225 301.413Z" fill="#CCCCCC"/>
<path d="M573.563 280.371H368.149C367.834 280.37 367.533 280.245 367.311 280.022C367.089 279.8 366.964 279.499 366.964 279.185C366.964 278.871 367.089 278.57 367.311 278.348C367.533 278.126 367.834 278 368.149 278H573.563C573.877 278 574.178 278.126 574.4 278.348C574.622 278.57 574.747 278.871 574.747 279.185C574.747 279.499 574.622 279.8 574.4 280.022C574.178 280.245 573.877 280.37 573.563 280.371Z" fill="#CCCCCC"/>
<path d="M573.563 288.076H368.149C367.834 288.076 367.532 287.951 367.309 287.729C367.087 287.507 366.961 287.205 366.961 286.891C366.961 286.576 367.087 286.275 367.309 286.053C367.532 285.83 367.834 285.705 368.149 285.705H573.563C573.878 285.705 574.18 285.83 574.402 286.053C574.625 286.275 574.75 286.576 574.75 286.891C574.75 287.205 574.625 287.507 574.402 287.729C574.18 287.951 573.878 288.076 573.563 288.076Z" fill="#CCCCCC"/>
<path d="M573.563 295.782H368.149C367.834 295.781 367.533 295.656 367.311 295.434C367.089 295.212 366.964 294.911 366.964 294.597C366.964 294.283 367.089 293.982 367.311 293.759C367.533 293.537 367.834 293.412 368.149 293.411H573.563C573.877 293.412 574.178 293.537 574.4 293.759C574.622 293.982 574.747 294.283 574.747 294.597C574.747 294.911 574.622 295.212 574.4 295.434C574.178 295.656 573.877 295.781 573.563 295.782Z" fill="#CCCCCC"/>
<path d="M301.419 260.513C297.563 260.511 293.866 258.98 291.14 256.256C288.415 253.533 286.884 249.841 286.884 245.991C286.884 242.141 288.415 238.449 291.14 235.725C293.866 233.002 297.563 231.471 301.419 231.468H517.47C516.383 229.477 514.779 227.814 512.826 226.655C510.874 225.496 508.645 224.884 506.373 224.882H76.922C71.3191 224.888 65.9479 227.115 61.9885 231.073C58.0291 235.031 55.8054 240.397 55.8059 245.991C55.8088 251.584 58.0336 256.948 61.9923 260.905C65.951 264.862 71.3202 267.09 76.922 267.1H506.373C508.645 267.098 510.874 266.486 512.826 265.327C514.779 264.168 516.383 262.505 517.47 260.513L301.419 260.513Z" fill="#FBB429"/>
<path d="M517.756 239.471H312.343C312.028 239.47 311.727 239.345 311.505 239.122C311.283 238.9 311.158 238.599 311.158 238.285C311.158 237.971 311.283 237.67 311.505 237.448C311.727 237.226 312.028 237.1 312.343 237.1H517.756C518.071 237.1 518.373 237.224 518.596 237.447C518.819 237.669 518.944 237.971 518.944 238.285C518.944 238.6 518.819 238.901 518.596 239.123C518.373 239.346 518.071 239.471 517.756 239.471Z" fill="#CCCCCC"/>
<path d="M517.756 247.176H312.343C312.028 247.176 311.726 247.051 311.503 246.829C311.28 246.607 311.155 246.305 311.155 245.991C311.155 245.676 311.28 245.375 311.503 245.152C311.726 244.93 312.028 244.805 312.343 244.805H517.756C518.071 244.805 518.373 244.93 518.596 245.152C518.819 245.375 518.944 245.676 518.944 245.991C518.944 246.305 518.819 246.607 518.596 246.829C518.373 247.051 518.071 247.176 517.756 247.176Z" fill="#CCCCCC"/>
<path d="M517.756 254.882H312.343C312.028 254.881 311.727 254.756 311.505 254.534C311.283 254.312 311.158 254.011 311.158 253.697C311.158 253.383 311.283 253.082 311.505 252.859C311.727 252.637 312.028 252.512 312.343 252.511H517.756C517.913 252.511 518.067 252.541 518.212 252.601C518.356 252.66 518.487 252.747 518.598 252.857C518.708 252.968 518.796 253.098 518.856 253.242C518.916 253.386 518.947 253.541 518.947 253.697C518.947 253.853 518.916 254.007 518.856 254.151C518.796 254.295 518.708 254.426 518.598 254.536C518.487 254.646 518.356 254.733 518.212 254.793C518.067 254.852 517.913 254.883 517.756 254.882Z" fill="#CCCCCC"/>
<path d="M245.613 218.249C241.757 218.246 238.06 216.715 235.335 213.991C232.609 211.268 231.078 207.576 231.078 203.726C231.078 199.876 232.609 196.184 235.335 193.461C238.06 190.737 241.757 189.206 245.613 189.204H461.664C460.577 187.212 458.973 185.549 457.02 184.39C455.068 183.231 452.839 182.619 450.567 182.617H21.1157C15.5128 182.623 10.1416 184.85 6.18229 188.808C2.22293 192.766 -0.000697107 198.132 1.63935e-07 203.726C0.00283483 209.319 2.22759 214.683 6.18619 218.64C10.1448 222.597 15.5139 224.825 21.1157 224.835H450.567C452.839 224.833 455.068 224.221 457.02 223.062C458.973 221.903 460.577 220.24 461.664 218.249L245.613 218.249Z" fill="#CCCCCC"/>
<path d="M461.951 197.206H256.537C256.222 197.205 255.921 197.08 255.699 196.858C255.477 196.635 255.352 196.334 255.352 196.02C255.352 195.706 255.477 195.405 255.699 195.183C255.921 194.961 256.222 194.835 256.537 194.835H461.951C462.266 194.835 462.568 194.96 462.79 195.182C463.013 195.404 463.138 195.706 463.138 196.02C463.138 196.335 463.013 196.636 462.79 196.859C462.568 197.081 462.266 197.206 461.951 197.206Z" fill="#CCCCCC"/>
<path d="M461.951 204.912H256.537C256.381 204.912 256.226 204.881 256.082 204.821C255.938 204.762 255.807 204.674 255.697 204.564C255.587 204.454 255.499 204.324 255.44 204.18C255.38 204.036 255.349 203.882 255.349 203.726C255.349 203.57 255.38 203.416 255.44 203.272C255.499 203.129 255.587 202.998 255.697 202.888C255.807 202.778 255.938 202.69 256.082 202.631C256.226 202.571 256.381 202.541 256.537 202.541H461.951C462.106 202.541 462.261 202.571 462.405 202.631C462.549 202.69 462.68 202.778 462.79 202.888C462.9 202.998 462.988 203.129 463.047 203.272C463.107 203.416 463.138 203.57 463.138 203.726C463.138 203.882 463.107 204.036 463.047 204.18C462.988 204.324 462.9 204.454 462.79 204.564C462.68 204.674 462.549 204.762 462.405 204.821C462.261 204.881 462.106 204.912 461.951 204.912Z" fill="#CCCCCC"/>
<path d="M461.951 212.617H256.537C256.222 212.617 255.92 212.492 255.697 212.27C255.474 212.048 255.349 211.746 255.349 211.432C255.349 211.117 255.474 210.816 255.697 210.594C255.92 210.371 256.222 210.246 256.537 210.246H461.951C462.106 210.246 462.261 210.277 462.405 210.337C462.549 210.396 462.68 210.483 462.79 210.594C462.9 210.704 462.988 210.834 463.047 210.978C463.107 211.122 463.138 211.276 463.138 211.432C463.138 211.588 463.107 211.742 463.047 211.886C462.988 212.029 462.9 212.16 462.79 212.27C462.68 212.38 462.549 212.468 462.405 212.527C462.261 212.587 462.106 212.617 461.951 212.617Z" fill="#CCCCCC"/>
<path d="M466.694 128.086C465.567 128.084 464.483 127.655 463.662 126.885C462.84 126.116 462.342 125.063 462.268 123.94L461.609 113.891C461.532 112.717 461.925 111.561 462.702 110.676C463.479 109.792 464.576 109.252 465.751 109.175L544.609 104.019C545.852 103.938 547.098 104.101 548.278 104.501C549.458 104.901 550.547 105.529 551.483 106.349C552.42 107.169 553.185 108.166 553.736 109.281C554.287 110.397 554.613 111.61 554.694 112.851C554.775 114.092 554.611 115.337 554.211 116.514C553.81 117.692 553.181 118.779 552.36 119.715C551.538 120.65 550.541 121.414 549.423 121.964C548.306 122.514 547.091 122.839 545.848 122.92L466.991 128.076C466.892 128.082 466.793 128.086 466.694 128.086Z" fill="#FBB429"/>
<path d="M482.243 129.382C481.095 129.38 479.991 128.934 479.164 128.138C478.337 127.342 477.85 126.258 477.806 125.111L477.244 110.101C477.223 109.519 477.316 108.939 477.519 108.393C477.722 107.846 478.03 107.346 478.427 106.919C478.824 106.492 479.301 106.147 479.832 105.904C480.362 105.662 480.935 105.525 481.518 105.504L546.364 103.084C547.541 103.04 548.688 103.465 549.552 104.265C550.415 105.065 550.925 106.175 550.969 107.351L551.531 122.361C551.553 122.943 551.46 123.523 551.257 124.07C551.054 124.616 550.745 125.116 550.348 125.543C549.951 125.97 549.474 126.315 548.944 126.558C548.414 126.8 547.841 126.937 547.258 126.958L482.411 129.378C482.355 129.38 482.299 129.382 482.243 129.382Z" fill="#2F2E41"/>
<path d="M558.233 267.748H548.146C546.968 267.746 545.839 267.279 545.006 266.447C544.174 265.616 543.705 264.488 543.704 263.313V179.374C543.705 178.199 544.174 177.071 545.006 176.24C545.839 175.408 546.968 174.941 548.146 174.939H558.233C559.411 174.941 560.54 175.408 561.373 176.24C562.205 177.071 562.674 178.199 562.675 179.374V263.313C562.674 264.488 562.205 265.616 561.373 266.447C560.54 267.279 559.411 267.746 558.233 267.748Z" fill="#2F2E41"/>
<path d="M513.461 223.379L504.835 218.159C503.829 217.548 503.106 216.564 502.825 215.422C502.545 214.28 502.729 213.073 503.339 212.067L546.916 140.285C547.528 139.281 548.514 138.559 549.657 138.279C550.801 137.999 552.01 138.183 553.018 138.792L561.643 144.012C562.65 144.623 563.373 145.607 563.653 146.749C563.934 147.891 563.749 149.098 563.14 150.104L519.562 221.885C518.951 222.89 517.965 223.612 516.821 223.892C515.677 224.172 514.469 223.987 513.461 223.379Z" fill="#2F2E41"/>
<path d="M542.913 87.3407C562.162 87.3407 577.767 71.7604 577.767 52.5411C577.767 33.3218 562.162 17.7415 542.913 17.7415C523.664 17.7415 508.059 33.3218 508.059 52.5411C508.059 71.7604 523.664 87.3407 542.913 87.3407Z" fill="#FBB429"/>
<path d="M524.047 64.423C522.926 64.0552 521.896 63.4519 521.028 62.6539C520.453 62.084 520.01 61.3955 519.729 60.6366C519.448 59.8776 519.337 59.0666 519.403 58.2602C519.44 57.6857 519.609 57.1274 519.897 56.629C520.186 56.1305 520.586 55.7054 521.066 55.3868C522.312 54.5885 523.979 54.5862 525.677 55.333L525.612 41.7477L526.979 41.7412L527.055 57.7121L526.002 57.0507C524.78 56.285 523.036 55.7461 521.804 56.5355C521.499 56.7441 521.247 57.02 521.067 57.3418C520.886 57.6636 520.783 58.0225 520.764 58.3908C520.718 58.9914 520.802 59.5949 521.011 60.1602C521.219 60.7255 521.547 61.2393 521.972 61.6667C523.481 63.1061 525.684 63.5563 528.195 63.9585L527.978 65.3058C526.644 65.1294 525.328 64.8339 524.047 64.423Z" fill="#2F2E41"/>
<path d="M511.523 41.0613L511.344 42.4141L518.642 43.3764L518.821 42.0236L511.523 41.0613Z" fill="#2F2E41"/>
<path d="M534.559 44.0979L534.38 45.4507L541.678 46.413L541.857 45.0602L534.559 44.0979Z" fill="#2F2E41"/>
<path d="M572.016 201.895H513.243C511.703 201.894 510.226 201.282 509.137 200.195C508.048 199.107 507.436 197.633 507.434 196.095L519.738 101.888C519.748 100.357 520.364 98.8925 521.452 97.814C522.54 96.7355 524.011 96.1307 525.544 96.1318H546.402C554.733 96.1412 562.72 99.4498 568.611 105.332C574.502 111.213 577.816 119.188 577.825 127.506V196.095C577.824 197.633 577.211 199.107 576.122 200.195C575.033 201.282 573.556 201.894 572.016 201.895Z" fill="#2F2E41"/>
<path d="M622.582 164.774C622.946 165.549 623.076 166.413 622.959 167.262C622.842 168.11 622.481 168.906 621.921 169.555L615.327 177.175C614.945 177.616 614.481 177.978 613.96 178.239C613.438 178.501 612.871 178.657 612.289 178.699C611.707 178.742 611.122 178.669 610.569 178.486C610.015 178.303 609.503 178.013 609.061 177.632L549.262 126.049C548.319 125.236 547.546 124.245 546.987 123.134C546.427 122.022 546.092 120.812 546.002 119.571C545.911 118.331 546.066 117.084 546.457 115.904C546.849 114.723 547.47 113.63 548.284 112.689C549.099 111.748 550.091 110.976 551.204 110.418C552.317 109.86 553.53 109.526 554.772 109.435C556.015 109.345 557.263 109.5 558.446 109.891C559.628 110.282 560.722 110.902 561.664 111.716L621.464 163.299C621.937 163.706 622.318 164.209 622.582 164.774Z" fill="#FBB429"/>
<path d="M609.384 147.751C609.747 148.526 609.878 149.39 609.76 150.239C609.643 151.087 609.283 151.883 608.723 152.532L597.459 165.548C596.688 166.437 595.596 166.985 594.421 167.07C593.246 167.156 592.086 166.773 591.194 166.005L542.09 123.648C541.649 123.267 541.287 122.803 541.025 122.282C540.763 121.762 540.606 121.195 540.564 120.614C540.521 120.033 540.594 119.45 540.777 118.897C540.961 118.344 541.251 117.832 541.633 117.392L552.896 104.375C553.277 103.934 553.742 103.573 554.263 103.311C554.785 103.05 555.352 102.893 555.934 102.851C556.516 102.809 557.1 102.881 557.654 103.064C558.208 103.248 558.72 103.538 559.162 103.919L608.266 146.276C608.738 146.683 609.12 147.186 609.384 147.751Z" fill="#2F2E41"/>
<path d="M543.565 31.9014C538.906 28.0517 532.677 31.6927 527.408 31.176C522.367 30.6816 518.31 26.2522 517.204 21.4858C515.914 15.9249 518.71 10.2762 522.922 6.71396C527.535 2.81242 533.729 1.60001 539.631 2.1937C546.396 2.87413 552.628 5.89821 558.239 9.59256C563.653 13.0449 568.648 17.1111 573.126 21.7101C577.138 25.9688 580.565 31.0707 581.74 36.8816C582.807 42.1624 582.181 48.0486 579.128 52.5973C577.508 54.9297 575.314 56.8059 572.756 58.045C570.091 59.4151 567.239 60.4125 564.661 61.9533C560.763 64.283 557.021 69.0313 558.348 73.8736C558.633 74.9315 559.174 75.9032 559.924 76.7032C560.824 77.664 562.39 76.3421 561.487 75.3789C559.902 73.6871 559.919 71.3903 560.708 69.3196C561.648 66.9852 563.354 65.0387 565.547 63.7992C568.246 62.19 571.24 61.1715 574.009 59.6998C576.661 58.3531 578.948 56.3866 580.675 53.9676C583.933 49.2603 584.82 43.1976 583.954 37.621C583.018 31.5864 579.799 26.1476 575.809 21.6144C571.466 16.681 566.168 12.5358 560.765 8.82409C554.968 4.84139 548.584 1.50243 541.568 0.384061C535.487 -0.585388 528.93 0.206871 523.693 3.60517C518.804 6.77726 515.111 12.1444 514.846 18.0684C514.762 20.7632 515.399 23.4316 516.69 25.7992C517.982 28.1668 519.882 30.148 522.195 31.5389C524.567 32.8958 527.306 33.4748 530.026 33.1943C532.934 32.953 535.832 32.0074 538.767 32.199C540.095 32.2542 541.368 32.74 542.394 33.5828C543.412 34.4239 544.574 32.7356 543.565 31.9014Z" fill="#2F2E41"/>
<path d="M502.581 213.279C502.594 213.202 502.608 213.125 502.625 213.049C502.747 212.479 502.98 211.939 503.312 211.459C503.644 210.98 504.068 210.572 504.56 210.257L513.036 204.798C514.026 204.162 515.229 203.944 516.38 204.192C517.532 204.44 518.537 205.134 519.177 206.121L545.325 246.598C545.963 247.587 546.182 248.788 545.934 249.938C545.685 251.087 544.99 252.092 544 252.729L535.523 258.188C534.533 258.824 533.33 259.042 532.179 258.794C531.027 258.546 530.022 257.852 529.382 256.865L503.234 216.388C502.637 215.469 502.404 214.361 502.581 213.279Z" fill="#2F2E41"/>
</g>
<defs>
<clipPath id="clip0">
<rect width="623" height="308" fill="white"/>
</clipPath>
</defs>
</svg>
