<?xml version="1.0" encoding="UTF-8" standalone="no"?>
<svg
   xmlns:dc="http://purl.org/dc/elements/1.1/"
   xmlns:cc="http://creativecommons.org/ns#"
   xmlns:rdf="http://www.w3.org/1999/02/22-rdf-syntax-ns#"
   xmlns:svg="http://www.w3.org/2000/svg"
   xmlns="http://www.w3.org/2000/svg"
   xmlns:sodipodi="http://sodipodi.sourceforge.net/DTD/sodipodi-0.dtd"
   xmlns:inkscape="http://www.inkscape.org/namespaces/inkscape"
   width="210.34375mm"
   height="178.048mm"
   viewBox="0 0 210.34375 178.048"
   version="1.1"
   id="svg2521"
   inkscape:version="1.0.2 (e86c870879, 2021-01-15)"
   sodipodi:docname="fundo_criancas.svg">
  <defs
     id="defs2515" />
  <sodipodi:namedview
     id="base"
     pagecolor="#ffffff"
     bordercolor="#666666"
     borderopacity="1.0"
     inkscape:pageopacity="0.0"
     inkscape:pageshadow="2"
     inkscape:zoom="0.35"
     inkscape:cx="737.50001"
     inkscape:cy="556.46867"
     inkscape:document-units="mm"
     inkscape:current-layer="layer1"
     inkscape:document-rotation="0"
     showgrid="false"
     fit-margin-top="0"
     fit-margin-left="0"
     fit-margin-right="0"
     fit-margin-bottom="0"
     inkscape:window-width="1458"
     inkscape:window-height="1043"
     inkscape:window-x="152"
     inkscape:window-y="61"
     inkscape:window-maximized="0" />
  <metadata
     id="metadata2518">
    <rdf:RDF>
      <cc:Work
         rdf:about="">
        <dc:format>image/svg+xml</dc:format>
        <dc:type
           rdf:resource="http://purl.org/dc/dcmitype/StillImage" />
        <dc:title></dc:title>
      </cc:Work>
    </rdf:RDF>
  </metadata>
  <g
     inkscape:label="Layer 1"
     inkscape:groupmode="layer"
     id="layer1"
     transform="translate(89.296878,-0.93433026)">
    <g
       id="g2645">
      <g
         opacity="0.2"
         id="g2291"
         transform="matrix(0.26458333,0,0,0.26458333,-130.04271,0.93363031)">
        <path
           d="m 433.55,753.92 a 42.59,42.59 0 0 0 2.16,6.52 q 20.85,-8.19 42.16,-15.7 c -0.12,-0.59 -0.24,-1.21 -0.39,-1.82 a 36.92,36.92 0 0 0 -8.86,-16.84 c -5.68,-6 -13,-8.9 -20.12,-7.13 -7.12,1.77 -12.29,7.83 -14.65,15.8 a 37.39,37.39 0 0 0 -0.3,19.17 z"
           transform="translate(-59,-87.5)"
           fill="#3f3d56"
           id="path2277" />
        <ellipse
           cx="446.94"
           cy="712.40997"
           rx="22.639999"
           ry="30.290001"
           transform="rotate(-12.59,20.916663,936.1849)"
           fill="#3f3d56"
           id="ellipse2279" />
        <ellipse
           cx="438.37"
           cy="676.40002"
           rx="22.639999"
           ry="30.290001"
           transform="rotate(-12.59,12.322422,900.14074)"
           fill="#3f3d56"
           id="ellipse2281" />
        <ellipse
           cx="429.79001"
           cy="640.40002"
           rx="22.639999"
           ry="30.290001"
           transform="rotate(-12.59,3.7685065,864.14691)"
           fill="#3f3d56"
           id="ellipse2283" />
        <ellipse
           cx="421.20999"
           cy="604.40002"
           rx="22.639999"
           ry="30.290001"
           transform="rotate(-12.59,-4.8307346,828.14807)"
           fill="#3f3d56"
           id="ellipse2285" />
        <path
           d="M 444.74,337.44 A 111.58,111.58 0 0 0 450,323.06 l -60,4.72 62.54,-15.13 a 113.31,113.31 0 0 0 -1.11,-47.48 112,112 0 0 0 -17.23,-38.43 l -73.2,65.45 63.37,-77.47 c -25.87,-27.62 -65,-40.76 -103.89,-31 -58.11,14.53 -93.72,74.57 -79.54,134.1 a 110.74,110.74 0 0 0 38.39,61 113.13,113.13 0 0 0 -7.33,22.64 L 356.42,422.6 270,415.11 a 113.46,113.46 0 0 0 2.68,36 110.84,110.84 0 0 0 38.4,61 112.85,112.85 0 0 0 -6.64,72.27 c 14.18,59.53 72.78,96 130.89,81.48 58.11,-14.52 93.72,-74.56 79.54,-134.09 a 110.84,110.84 0 0 0 -38.4,-61 112.85,112.85 0 0 0 6.64,-72.27 110.77,110.77 0 0 0 -38.37,-61.06 z"
           transform="translate(-59,-87.5)"
           fill="#f9a826"
           id="path2287" />
        <path
           d="m 272.7,451.07 a 110.84,110.84 0 0 0 38.4,61 112.85,112.85 0 0 0 -6.64,72.27 c 14.18,59.53 72.78,96 130.89,81.48 58.11,-14.52 93.72,-74.56 79.54,-134.09 a 110.84,110.84 0 0 0 -38.4,-61 C 486.23,448.87 269.82,439 272.7,451.07 Z"
           transform="translate(-59,-87.5)"
           opacity="0.1"
           id="path2289" />
      </g>
      <g
         opacity="0.2"
         id="g2307"
         transform="matrix(0.26458333,0,0,0.26458333,-130.04271,0.93363031)">
        <path
           d="m 703.24,742.93 a 46.72,46.72 0 0 0 -0.43,7.86 q 26.15,0.42 52.5,1.76 c 0.12,-0.69 0.24,-1.39 0.34,-2.1 a 41.67,41.67 0 0 0 -2.45,-21.73 c -3.62,-8.82 -10.37,-15.13 -18.82,-16.35 -8.45,-1.22 -16.69,2.94 -22.64,10.36 a 41.74,41.74 0 0 0 -8.5,20.2 z"
           transform="translate(-59,-87.5)"
           fill="#3f3d56"
           id="path2293" />
        <ellipse
           cx="735.47998"
           cy="704.75"
           rx="34.66"
           ry="26.48"
           transform="rotate(-81.82,655.52604,695.04698)"
           fill="#3f3d56"
           id="ellipse2295" />
        <ellipse
           cx="741.51001"
           cy="662.82001"
           rx="34.66"
           ry="26.48"
           transform="rotate(-81.82,661.55067,653.11782)"
           fill="#3f3d56"
           id="ellipse2297" />
        <ellipse
           cx="747.53003"
           cy="620.89001"
           rx="34.66"
           ry="26.48"
           transform="rotate(-81.82,667.5753,611.18866)"
           fill="#3f3d56"
           id="ellipse2299" />
        <ellipse
           cx="753.56"
           cy="578.96997"
           rx="34.66"
           ry="26.48"
           transform="rotate(-81.82,673.59993,569.25949)"
           fill="#3f3d56"
           id="ellipse2301" />
        <path
           d="m 892.9,306.12 a 125.32,125.32 0 0 0 11.82,-13 L 837.49,272 l 74.39,11.25 a 127.08,127.08 0 0 0 16.69,-99.12 l -107.36,37.44 101.88,-54.5 A 126.83,126.83 0 1 0 695.57,277.77 127.08,127.08 0 0 0 678,298.6 L 760.71,357.88 670,312.2 a 126.9,126.9 0 0 0 3.26,120.8 126.82,126.82 0 1 0 197.33,28.36 126.84,126.84 0 0 0 22.31,-155.24 z"
           transform="translate(-59,-87.5)"
           fill="#f9a826"
           id="path2303" />
        <path
           d="M 657.55,351.52 A 126.31,126.31 0 0 0 673.26,433 126.82,126.82 0 1 0 870.59,461.36 C 890.49,442.41 659.58,337.43 657.55,351.52 Z"
           transform="translate(-59,-87.5)"
           opacity="0.1"
           id="path2305" />
      </g>
      <circle
         cx="-4.8947949"
         cy="16.80863"
         r="1.8520833"
         fill="#f9a826"
         opacity="0.1"
         id="circle2445"
         style="stroke-width:0.264583" />
      <circle
         cx="7.5406218"
         cy="52.527378"
         r="1.8520833"
         fill="#f9a826"
         opacity="0.1"
         id="circle2447"
         style="stroke-width:0.264583" />
      <circle
         cx="-27.648962"
         cy="18.660713"
         r="1.8520833"
         fill="#f9a826"
         opacity="0.1"
         id="circle2449"
         style="stroke-width:0.264583" />
      <circle
         cx="-84.534378"
         cy="103.0628"
         r="4.7624998"
         fill="#f9a826"
         opacity="0.1"
         id="circle2451"
         style="stroke-width:0.264583" />
      <circle
         cx="107.28854"
         cy="27.391964"
         r="1.8520833"
         fill="#f9a826"
         opacity="0.1"
         id="circle2453"
         style="stroke-width:0.264583" />
      <circle
         cx="109.4052"
         cy="52.527378"
         r="6.0854168"
         fill="#f9a826"
         opacity="0.1"
         id="circle2455"
         style="stroke-width:0.264583" />
      <circle
         cx="119.19479"
         cy="35.329464"
         r="1.8520833"
         fill="#f9a826"
         opacity="0.1"
         id="circle2457"
         style="stroke-width:0.264583" />
      <circle
         cx="102.79062"
         cy="69.196129"
         r="1.8520833"
         fill="#f9a826"
         opacity="0.1"
         id="circle2459"
         style="stroke-width:0.264583" />
      <circle
         cx="-8.5989618"
         cy="31.625296"
         r="1.8520833"
         fill="#f9a826"
         opacity="0.1"
         id="circle2461"
         style="stroke-width:0.264583" />
      <circle
         cx="-77.919792"
         cy="125.2878"
         r="1.8520833"
         fill="#f9a826"
         opacity="0.1"
         id="circle2463"
         style="stroke-width:0.264583" />
      <circle
         cx="-80.830208"
         cy="82.95446"
         r="1.8520833"
         fill="#f9a826"
         opacity="0.1"
         id="circle2465"
         style="stroke-width:0.264583" />
      <circle
         cx="20.769789"
         cy="14.956547"
         r="1.8520833"
         fill="#f9a826"
         opacity="0.1"
         id="circle2467"
         style="stroke-width:0.264583" />
      <circle
         cx="26.855206"
         cy="31.625296"
         r="1.8520833"
         fill="#f9a826"
         opacity="0.1"
         id="circle2469"
         style="stroke-width:0.264583" />
    </g>
  </g>
</svg>
