<?xml version="1.0" encoding="UTF-8" standalone="no"?>
<svg
   xmlns:dc="http://purl.org/dc/elements/1.1/"
   xmlns:cc="http://creativecommons.org/ns#"
   xmlns:rdf="http://www.w3.org/1999/02/22-rdf-syntax-ns#"
   xmlns:svg="http://www.w3.org/2000/svg"
   xmlns="http://www.w3.org/2000/svg"
   xmlns:sodipodi="http://sodipodi.sourceforge.net/DTD/sodipodi-0.dtd"
   xmlns:inkscape="http://www.inkscape.org/namespaces/inkscape"
   width="539.40179"
   height="147"
   viewBox="0 0 142.71672 38.893749"
   version="1.1"
   id="svg8"
   inkscape:version="1.0.2 (e86c870879, 2021-01-15)"
   sodipodi:docname="logo.svg"
   inkscape:export-filename="/home/adiala/Documents/mochila-cheia/images/logo.png"
   inkscape:export-xdpi="14.869912"
   inkscape:export-ydpi="14.869912">
  <defs
     id="defs2" />
  <sodipodi:namedview
     id="base"
     pagecolor="#ffffff"
     bordercolor="#666666"
     borderopacity="1.0"
     inkscape:pageopacity="0.0"
     inkscape:pageshadow="2"
     inkscape:zoom="0.37620793"
     inkscape:cx="491.03945"
     inkscape:cy="185.92008"
     inkscape:document-units="px"
     inkscape:current-layer="layer1"
     inkscape:document-rotation="0"
     showgrid="false"
     inkscape:window-width="1920"
     inkscape:window-height="1043"
     inkscape:window-x="0"
     inkscape:window-y="0"
     inkscape:window-maximized="1"
     units="px"
     fit-margin-top="0"
     fit-margin-left="0"
     fit-margin-right="0"
     fit-margin-bottom="0" />
  <metadata
     id="metadata5">
    <rdf:RDF>
      <cc:Work
         rdf:about="">
        <dc:format>image/svg+xml</dc:format>
        <dc:type
           rdf:resource="http://purl.org/dc/dcmitype/StillImage" />
        <dc:title></dc:title>
      </cc:Work>
    </rdf:RDF>
  </metadata>
  <g
     inkscape:label="Layer 1"
     inkscape:groupmode="layer"
     id="layer1"
     transform="translate(-253.92617,-73.02282)">
    <g
       id="g1350"
       transform="matrix(0.21241477,0,0,0.21241477,276.13413,65.649048)" />
    <g
       id="g1352"
       transform="matrix(0.21241477,0,0,0.21241477,276.13413,65.649048)" />
    <g
       id="g1354"
       transform="matrix(0.21241477,0,0,0.21241477,276.13413,65.649048)" />
    <g
       id="g1356"
       transform="matrix(0.21241477,0,0,0.21241477,276.13413,65.649048)" />
    <g
       id="g1358"
       transform="matrix(0.21241477,0,0,0.21241477,276.13413,65.649048)" />
    <g
       id="g1360"
       transform="matrix(0.21241477,0,0,0.21241477,276.13413,65.649048)" />
    <g
       id="g1362"
       transform="matrix(0.21241477,0,0,0.21241477,276.13413,65.649048)" />
    <g
       id="g1364"
       transform="matrix(0.21241477,0,0,0.21241477,276.13413,65.649048)" />
    <g
       id="g1366"
       transform="matrix(0.21241477,0,0,0.21241477,276.13413,65.649048)" />
    <g
       id="g1368"
       transform="matrix(0.21241477,0,0,0.21241477,276.13413,65.649048)" />
    <g
       id="g1370"
       transform="matrix(0.21241477,0,0,0.21241477,276.13413,65.649048)" />
    <g
       id="g1372"
       transform="matrix(0.21241477,0,0,0.21241477,276.13413,65.649048)" />
    <g
       id="g1374"
       transform="matrix(0.21241477,0,0,0.21241477,276.13413,65.649048)" />
    <g
       id="g1376"
       transform="matrix(0.21241477,0,0,0.21241477,276.13413,65.649048)" />
    <g
       id="g1378"
       transform="matrix(0.21241477,0,0,0.21241477,276.13413,65.649048)" />
    <g
       id="g1291"
       transform="matrix(0.28461941,0,0,0.28461941,181.65385,52.239108)">
      <g
         id="g1382"
         transform="matrix(0.82627336,0,0,0.82627336,98.201633,42.167373)"
         inkscape:export-xdpi="9.269887"
         inkscape:export-ydpi="9.269887"
         inkscape:export-filename="/home/adiala/Documents/mochila-cheia/images/logo.png">
        <circle
           style="fill:#15bdb1;fill-opacity:1;stroke:#ffffff;stroke-width:0.739355;stroke-miterlimit:4;stroke-dasharray:none"
           id="path1367"
           cx="300.39297"
           cy="185.47302"
           r="7.2778821" />
        <text
           xml:space="preserve"
           style="font-style:normal;font-weight:normal;font-size:10.5077px;line-height:1.25;font-family:sans-serif;fill:#ffffff;fill-opacity:1;stroke:none;stroke-width:0.262691"
           x="294.08618"
           y="188.47513"
           id="text1371"><tspan
             sodipodi:role="line"
             id="tspan1369"
             x="294.08618"
             y="188.47513"
             style="font-style:normal;font-variant:normal;font-weight:normal;font-stretch:normal;font-family:Pacifico;-inkscape-font-specification:Pacifico;fill:#ffffff;stroke-width:0.262691">42</tspan></text>
      </g>
      <path
         style="fill:#11616a;fill-opacity:1;stroke-width:0.266898"
         d="m 322.25206,73.02282 c 37.73538,0 68.32589,30.59052 68.32589,68.32589 0,37.73537 -30.59051,68.32589 -68.32589,68.32589 -37.73537,0 -68.32589,-30.59052 -68.32589,-68.32589 0,-37.73537 30.59052,-68.32589 68.32589,-68.32589 z"
         id="path1128"
         inkscape:export-xdpi="9.269887"
         inkscape:export-ydpi="9.269887"
         inkscape:export-filename="/home/adiala/Documents/mochila-cheia/images/logo.png" />
      <path
         style="fill:#666666;stroke-width:0.266898"
         d="m 286.68123,156.35104 v 52.16469 c 0,0 -6.28197,0 -9.74605,0 -3.46514,0 -3.14111,-1.9158 -3.14111,-13.93368 0,-12.01788 1.40787,-38.23101 12.88716,-38.23101 z"
         id="path1130"
         inkscape:export-xdpi="9.269887"
         inkscape:export-ydpi="9.269887"
         inkscape:export-filename="/home/adiala/Documents/mochila-cheia/images/logo.png" />
      <path
         style="fill:#807d7d;stroke-width:0.266898"
         d="m 283.57614,176.59019 c 0,0.64963 -0.29225,1.18102 -0.64963,1.18102 -0.35737,0 -0.64963,-0.53139 -0.64963,-1.18102 v -18.66258 c 0,-0.64963 0.29226,-1.18103 0.64963,-1.18103 0.35738,0 0.64963,0.5314 0.64963,1.18103 z"
         id="path1132"
         inkscape:export-xdpi="9.269887"
         inkscape:export-ydpi="9.269887"
         inkscape:export-filename="/home/adiala/Documents/mochila-cheia/images/logo.png" />
      <path
         style="fill:#666666;stroke-width:0.266898"
         d="m 357.8229,156.35104 v 52.16469 c 0,0 6.28091,0 9.74605,0 3.46513,0 3.14112,-1.9158 3.14112,-13.93368 0,-12.01788 -1.40789,-38.23101 -12.88717,-38.23101 z"
         id="path1134"
         inkscape:export-xdpi="9.269887"
         inkscape:export-ydpi="9.269887"
         inkscape:export-filename="/home/adiala/Documents/mochila-cheia/images/logo.png" />
      <path
         style="fill:#807d7d;stroke-width:0.266898"
         d="m 360.92798,176.59019 c 0,0.64963 0.29226,1.18102 0.64964,1.18102 0.35737,0 0.64963,-0.53139 0.64963,-1.18102 v -18.66258 c 0,-0.64963 -0.29226,-1.18103 -0.64963,-1.18103 -0.35738,0 -0.64964,0.5314 -0.64964,1.18103 z"
         id="path1136"
         inkscape:export-xdpi="9.269887"
         inkscape:export-ydpi="9.269887"
         inkscape:export-filename="/home/adiala/Documents/mochila-cheia/images/logo.png" />
      <path
         style="fill:#ecf0f1;stroke-width:0.266898"
         d="m 361.57655,174.99146 c 0,0 1.98091,0.12327 1.98091,1.1378 0,1.01581 0,2.99566 0,3.36665 0,0.37098 -0.42036,0.34643 -0.66804,0.34643 -0.24768,0 -1.31154,0 -1.31154,0 0,0 -1.06518,0 -1.31153,0 -0.24768,0 -0.66938,0.0245 -0.66938,-0.34643 0,-0.37099 0,-2.35217 0,-3.36665 0,-1.01448 1.98091,-1.1378 1.98091,-1.1378 z"
         id="path1138"
         inkscape:export-xdpi="9.269887"
         inkscape:export-ydpi="9.269887"
         inkscape:export-filename="/home/adiala/Documents/mochila-cheia/images/logo.png" />
      <g
         id="g1144"
         transform="matrix(0.26689801,0,0,0.26689801,253.92617,73.02282)"
         inkscape:export-xdpi="9.269887"
         inkscape:export-ydpi="9.269887"
         inkscape:export-filename="/home/adiala/Documents/mochila-cheia/images/logo.png">
        <path
           style="fill:#ffffff"
           d="m 395.829,426.045 c 0,4.083 3.339,7.422 7.418,7.422 h 0.185 c 4.083,0 7.422,-3.339 7.422,-7.422 l -2.226,-24.484 c 0,-4.083 -1.113,-6.679 -5.196,-6.679 h -0.185 c -4.078,0 -5.191,2.596 -5.191,6.679 z m 10.433,-26.327 v 0 c 0,1.617 -1.307,2.924 -2.919,2.924 -1.612,0 -2.924,-1.307 -2.924,-2.924 0,-1.612 1.312,-2.919 2.924,-2.919 1.617,0 2.919,1.311 2.919,2.919 z m -8.207,25.768 v 0 c 0,-2.919 2.369,-5.289 5.289,-5.289 2.92,0 5.288,2.365 5.288,5.289 0,2.919 -2.365,5.288 -5.288,5.288 -2.92,0 -5.289,-2.369 -5.289,-5.288 z"
           id="path1140" />
        <path
           style="fill:#ffffff"
           d="m 401.436,399.819 c 0,0.841 0.854,1.524 1.903,1.524 1.044,0 1.903,-0.684 1.903,-1.524 v -17.727 c 0,-0.836 -0.854,-1.524 -1.903,-1.524 -1.049,0 -1.903,0.688 -1.903,1.524 z"
           id="path1142" />
      </g>
      <path
         style="fill:#666666;stroke-width:0.266898"
         d="m 317.51089,96.808504 h 16.31654 c 1.05264,0 1.91446,0.861814 1.91446,1.91446 v 7.284176 h -2.78855 v -4.22819 c 0,-0.35391 -0.28959,-0.64216 -0.64216,-0.64216 h -13.28164 c -0.35391,0 -0.64215,0.28852 -0.64215,0.64216 v 4.22819 h -2.78855 v -7.284176 c 0,-1.052646 0.8618,-1.91446 1.91445,-1.91446 z"
         id="path1146"
         inkscape:export-xdpi="9.269887"
         inkscape:export-ydpi="9.269887"
         inkscape:export-filename="/home/adiala/Documents/mochila-cheia/images/logo.png" />
      <path
         style="fill:#fbb429;stroke-width:0.266898"
         d="m 319.94686,95.794024 h 10.77655 c 0.92826,0 1.68626,0.758258 1.68626,1.686263 v 2.572633 c 0,0.92827 -0.75933,1.68626 -1.68626,1.68626 h -10.77655 c -0.92826,0 -1.68625,-0.75826 -1.68625,-1.68626 v -2.572633 c -2.7e-4,-0.928272 0.75932,-1.686263 1.68625,-1.686263 z"
         id="path1148"
         inkscape:export-xdpi="9.269887"
         inkscape:export-ydpi="9.269887"
         inkscape:export-filename="/home/adiala/Documents/mochila-cheia/images/logo.png" />
      <path
         style="fill:#f5a209;stroke-width:0.266898"
         d="m 332.27435,100.85201 c -0.1935,0.52766 -0.57437,0.8877 -1.00833,0.8877 h -11.86016 c -0.43398,0 -0.8135,-0.36004 -1.00727,-0.8877 z"
         id="path1150"
         inkscape:export-xdpi="9.269887"
         inkscape:export-ydpi="9.269887"
         inkscape:export-filename="/home/adiala/Documents/mochila-cheia/images/logo.png" />
      <path
         style="fill:#15bdb1;stroke-width:0.266898"
         d="m 322.25206,103.54554 c -33.29393,0 -37.09801,14.94442 -37.09801,30.97271 0,16.0283 0,63.67733 0,68.65871 0,4.98139 0.86661,6.49764 6.06498,6.49764 5.19837,0 31.03303,0 31.03303,0 0,0 25.83573,0 31.03303,0 5.19838,0 6.065,-1.51625 6.065,-6.4979 0,-4.98272 0,-52.63176 0,-68.65871 0,-16.02803 -3.80543,-30.97245 -37.09803,-30.97245 z"
         id="path1152"
         inkscape:export-xdpi="9.269887"
         inkscape:export-ydpi="9.269887"
         inkscape:export-filename="/home/adiala/Documents/mochila-cheia/images/logo.png" />
      <path
         style="fill:#fbb429;stroke-width:0.266898"
         d="m 364.89009,81.292122 -23.7315,67.459278 -7.4582,-2.62442 23.7315,-67.458199 z"
         id="path1154"
         inkscape:export-xdpi="9.269887"
         inkscape:export-ydpi="9.269887"
         inkscape:export-filename="/home/adiala/Documents/mochila-cheia/images/logo.png" />
      <g
         id="g1160"
         transform="matrix(0.26689801,0,0,0.26689801,253.92617,73.02282)"
         inkscape:export-xdpi="9.269887"
         inkscape:export-ydpi="9.269887"
         inkscape:export-filename="/home/adiala/Documents/mochila-cheia/images/logo.png">
        <path
           style="fill:#ffffff"
           d="m 326.649,280.415 -9.824,-3.455 0.388,-1.109 9.824,3.455 z m 82.579,-234.74 v 0 l -9.829,-3.455 0.388,-1.109 9.824,3.455 -0.388,1.109 z m 1.034,-2.933 v 0 l 0.388,-1.109 -5.935,-2.088 -0.388,1.113 5.935,2.088 z m 1.03,-2.933 v 0 l -5.93,-2.088 0.388,-1.109 5.931,2.088 z m 1.035,-2.933 v 0 l 0.388,-1.109 -5.931,-2.088 -0.388,1.113 5.93,2.088 v -0.004 z m 1.035,-2.933 v 0 l -5.93,-2.088 0.383,-1.109 5.93,2.088 -0.383,1.113 z m -9.289,26.41 v 0 l -9.824,-3.459 0.388,-1.109 9.824,3.459 -0.383,1.109 z m 1.035,-2.937 v 0 l 0.388,-1.109 -5.935,-2.088 -0.388,1.113 5.935,2.088 z m 1.03,-2.933 v 0 l -5.935,-2.088 0.383,-1.109 5.935,2.083 -0.388,1.109 z m 1.03,-2.933 v 0 l 0.388,-1.109 -5.931,-2.088 -0.383,1.109 5.931,2.088 z m 1.034,-2.933 v 0 l 0.388,-1.113 -5.935,-2.083 -0.388,1.109 z m -9.293,26.41 v 0 l -9.824,-3.455 0.383,-1.109 9.824,3.455 -0.388,1.109 z m 1.035,-2.933 v 0 l 0.388,-1.113 -5.931,-2.088 -0.388,1.109 5.931,2.088 z m 1.03,-2.937 v 0 l -5.93,-2.083 0.388,-1.109 5.931,2.083 z m 1.035,-2.928 v 0 l 0.393,-1.109 -5.931,-2.088 -0.393,1.109 z m 1.03,-2.938 v 0 l 0.388,-1.109 -5.931,-2.088 -0.388,1.109 z m -9.289,26.41 v 0 l -9.824,-3.459 0.388,-1.109 9.824,3.459 -0.383,1.113 z m 1.035,-2.937 v 0 l 0.383,-1.113 -5.935,-2.088 -0.388,1.109 5.935,2.088 z m 1.03,-2.933 v 0 l -5.935,-2.088 0.388,-1.108 5.935,2.088 z m 1.03,-2.933 v 0 l 0.383,-1.109 -5.931,-2.088 -0.383,1.109 z m 1.034,-2.933 v 0 l 0.388,-1.109 -5.935,-2.088 -0.388,1.109 z m -9.293,26.41 v 0 l -9.824,-3.455 0.388,-1.113 9.824,3.455 -0.388,1.109 z m 1.035,-2.933 v 0 l 0.388,-1.113 -5.935,-2.083 -0.388,1.109 z m 1.03,-2.933 v 0 l -5.931,-2.088 0.388,-1.109 5.935,2.088 -0.388,1.109 z m 1.035,-2.933 v 0 l 0.388,-1.113 -5.935,-2.088 -0.383,1.109 5.931,2.088 v 0.004 z m 1.034,-2.937 v 0 l 0.383,-1.109 -5.931,-2.088 -0.388,1.109 z m -9.288,26.41 v 0 l -9.824,-3.459 0.388,-1.109 9.824,3.459 -0.383,1.109 z m 1.03,-2.933 v 0 l 0.388,-1.113 -5.931,-2.088 -0.388,1.109 5.931,2.088 z m 1.034,-2.933 v 0 l -5.931,-2.088 0.388,-1.109 5.935,2.088 -0.388,1.109 z m 1.03,-2.933 v 0 l 0.393,-1.109 -5.935,-2.088 -0.388,1.109 z m 1.035,-2.937 v 0 l 0.383,-1.109 -5.931,-2.083 -0.383,1.109 5.931,2.088 z m -9.293,26.41 v 0 l -9.824,-3.459 0.393,-1.109 9.824,3.459 -0.388,1.113 z m 1.035,-2.938 v 0 l 0.388,-1.109 -5.935,-2.088 -0.388,1.109 z m 1.03,-2.933 v 0 l -5.931,-2.088 0.393,-1.109 5.935,2.088 -0.393,1.109 z m 1.03,-2.933 v 0 l 0.388,-1.109 -5.93,-2.088 -0.388,1.109 z m 1.034,-2.937 v 0 l 0.383,-1.109 -5.931,-2.083 -0.388,1.109 z m -9.288,26.41 v 0 l -9.824,-3.459 0.383,-1.113 9.824,3.459 -0.388,1.113 z m 1.03,-2.933 v 0 l 0.388,-1.109 -5.93,-2.088 -0.388,1.109 z m 1.035,-2.938 v 0 l -5.931,-2.083 0.388,-1.113 5.935,2.088 -0.388,1.109 h -0.004 z m 1.03,-2.932 v 0 l 0.388,-1.113 -5.931,-2.088 -0.383,1.109 5.931,2.088 z m 1.034,-2.933 v 0 l 0.383,-1.109 -5.93,-2.088 -0.383,1.113 z m -9.288,26.41 v 0 l -9.824,-3.459 0.388,-1.109 9.824,3.455 -0.383,1.113 z m 1.034,-2.933 v 0 l 0.388,-1.109 -5.935,-2.088 -0.388,1.109 z m 1.03,-2.933 v 0 l -5.93,-2.088 0.393,-1.113 5.931,2.088 z m 1.035,-2.938 v 0 l 0.388,-1.109 -5.935,-2.083 -0.383,1.109 5.93,2.088 z m 1.035,-2.933 v 0 l 0.383,-1.109 -5.931,-2.088 -0.388,1.113 5.931,2.083 h 0.005 z m -9.289,26.411 v 0 l -9.824,-3.459 0.388,-1.108 9.824,3.455 z m 1.03,-2.933 v 0 l 0.388,-1.109 -5.935,-2.088 -0.388,1.109 z m 1.035,-2.933 v 0 l -5.93,-2.088 0.383,-1.113 5.935,2.088 -0.388,1.109 z m 1.034,-2.933 v 0 l 0.388,-1.109 -5.93,-2.083 -0.383,1.109 5.93,2.083 z m 1.035,-2.933 v 0 l 0.383,-1.109 -5.931,-2.088 -0.388,1.113 z m -9.293,26.41 v 0 l -9.824,-3.455 0.388,-1.109 9.824,3.455 -0.388,1.113 z m 1.035,-2.933 v 0 l 0.388,-1.109 -5.935,-2.088 -0.388,1.113 z m 1.03,-2.933 v 0 l -5.931,-2.088 0.388,-1.113 5.931,2.088 -0.388,1.109 z m 1.034,-2.937 v 0 l 0.388,-1.109 -5.935,-2.088 -0.383,1.109 z m 1.03,-2.933 v 0 l 0.388,-1.109 -5.93,-2.088 -0.388,1.109 z m -9.288,26.405 v 0 l -9.824,-3.459 0.388,-1.109 9.824,3.459 z m 1.034,-2.933 v 0 l 0.388,-1.109 -5.935,-2.088 -0.388,1.113 5.935,2.088 z m 1.03,-2.933 v 0 l -5.935,-2.088 0.383,-1.109 5.935,2.088 -0.388,1.113 z m 1.03,-2.933 v 0 l 0.393,-1.109 -5.935,-2.088 -0.388,1.109 z m 1.035,-2.937 v 0 l 0.388,-1.109 -5.935,-2.088 -0.388,1.113 z m -9.293,26.41 v 0 l -9.824,-3.455 0.388,-1.109 9.824,3.455 z m 1.035,-2.933 v 0 l 0.388,-1.109 -5.931,-2.088 -0.388,1.109 z m 1.03,-2.933 v 0 l -5.931,-2.088 0.388,-1.109 5.935,2.088 -0.388,1.113 z m 1.034,-2.933 v 0 l 0.388,-1.109 -5.935,-2.088 -0.388,1.109 z m 1.035,-2.933 v 0 l 0.383,-1.113 -5.931,-2.088 -0.383,1.113 z m -9.288,26.406 v 0 l -9.824,-3.459 0.388,-1.109 9.824,3.459 -0.383,1.109 z m 1.03,-2.938 v 0 l 0.388,-1.109 -5.931,-2.088 -0.388,1.109 5.931,2.083 z m 1.034,-2.933 v 0 l -5.931,-2.088 0.388,-1.109 5.935,2.088 -0.388,1.109 z m 1.03,-2.932 v 0 l 0.383,-1.109 -5.93,-2.088 -0.388,1.109 5.931,2.088 z m 1.035,-2.933 v 0 l 0.383,-1.109 -5.93,-2.088 -0.388,1.113 5.935,2.088 z m -9.293,26.41 v 0 l -9.824,-3.459 0.388,-1.109 9.824,3.459 z m 1.03,-2.933 v 0 l 0.393,-1.113 -5.931,-2.088 -0.393,1.113 z m 1.034,-2.938 v 0 l -5.931,-2.088 0.393,-1.113 5.935,2.088 -0.393,1.113 z m 1.035,-2.933 v 0 l 0.393,-1.109 -5.93,-2.088 -0.393,1.109 z m 1.035,-2.933 v 0 l 0.388,-1.113 -5.931,-2.088 -0.388,1.113 z m -9.289,26.406 v 0 l -9.829,-3.455 0.388,-1.108 9.824,3.455 z m 1.03,-2.933 v 0 l 0.388,-1.108 -5.935,-2.088 -0.388,1.108 5.93,2.088 z m 1.035,-2.933 v 0 l -5.931,-2.088 0.388,-1.108 5.931,2.083 -0.388,1.108 z m 1.034,-2.933 v 0 l 0.388,-1.109 -5.931,-2.088 -0.383,1.113 5.931,2.083 h -0.005 z m -7.228,20.544 v 0 l 0.393,-1.113 -5.931,-2.088 -0.393,1.113 z m 1.035,-2.932 v 0 l -5.935,-2.088 0.383,-1.109 5.935,2.088 -0.388,1.108 h 0.005 z m 1.034,-2.933 v 0 l 0.388,-1.108 -5.935,-2.088 -0.383,1.109 z m 1.03,-2.933 v 0 l 0.388,-1.113 -5.931,-2.088 -0.388,1.109 5.931,2.088 z m 5.159,-14.67 v 0 l 0.393,-1.109 -5.935,-2.088 -0.393,1.113 5.935,2.088 z"
           id="path1156" />
        <path
           style="fill:#ffffff"
           d="M 273.325,208.427 148.572,235.031 114.342,74.529 239.095,47.925 Z"
           id="path1158" />
      </g>
      <path
         style="fill:#ff5b61;stroke-width:0.266898"
         d="m 326.00331,128.41963 -33.29632,7.10056 -9.13593,-42.837662 33.29633,-7.10189 9.13592,42.837662 z"
         id="path1162"
         inkscape:export-xdpi="9.269887"
         inkscape:export-ydpi="9.269887"
         inkscape:export-filename="/home/adiala/Documents/mochila-cheia/images/logo.png" />
      <path
         style="fill:#ecf0f1;stroke-width:0.266898"
         d="m 286.47545,94.096553 c 0.08,0.37606 -0.16014,0.747048 -0.53619,0.827118 -0.37606,0.08006 -0.74572,-0.160139 -0.82605,-0.536198 -0.08,-0.37606 0.16013,-0.745713 0.5362,-0.82605 0.37605,-0.08008 0.74705,0.160139 0.82711,0.536198 z"
         id="path1164"
         inkscape:export-xdpi="9.269887"
         inkscape:export-ydpi="9.269887"
         inkscape:export-filename="/home/adiala/Documents/mochila-cheia/images/logo.png" />
      <path
         style="fill:#ec4b53;stroke-width:0.266898"
         d="m 286.23765,94.148332 c 0.0518,0.245279 -0.10354,0.485754 -0.34884,0.537532 -0.24421,0.05178 -0.48575,-0.10356 -0.53753,-0.348836 -0.0531,-0.244211 0.10353,-0.485754 0.34884,-0.537532 0.24528,-0.05311 0.48575,0.103561 0.53753,0.348836 z"
         id="path1166"
         inkscape:export-xdpi="9.269887"
         inkscape:export-ydpi="9.269887"
         inkscape:export-filename="/home/adiala/Documents/mochila-cheia/images/logo.png" />
      <path
         style="fill:#ffffff;stroke-width:0.266898"
         d="m 285.96755,94.204914 c 0.0333,0.156669 -0.0862,0.316808 -0.26636,0.354974 l -2.39408,0.510309 c -0.17989,0.03817 -0.35391,-0.05791 -0.38701,-0.214586 -0.0333,-0.156668 0.0862,-0.315473 0.26636,-0.354974 l 2.39408,-0.510309 c 0.17989,-0.03817 0.35392,0.05791 0.38701,0.215653 z"
         id="path1168"
         inkscape:export-xdpi="9.269887"
         inkscape:export-ydpi="9.269887"
         inkscape:export-filename="/home/adiala/Documents/mochila-cheia/images/logo.png" />
      <path
         style="fill:#ecf0f1;stroke-width:0.266898"
         d="m 286.93772,96.264833 c 0.08,0.376059 -0.16014,0.745713 -0.5362,0.82605 -0.37606,0.08006 -0.7457,-0.160139 -0.82711,-0.535131 -0.08,-0.376059 0.16014,-0.747048 0.53619,-0.827117 0.37606,-0.08006 0.74572,0.160406 0.82712,0.536198 z"
         id="path1170"
         inkscape:export-xdpi="9.269887"
         inkscape:export-ydpi="9.269887"
         inkscape:export-filename="/home/adiala/Documents/mochila-cheia/images/logo.png" />
      <path
         style="fill:#ec4b53;stroke-width:0.266898"
         d="m 286.69991,96.315544 c 0.0518,0.245279 -0.10353,0.485754 -0.34883,0.537532 -0.24421,0.05311 -0.48576,-0.10356 -0.53754,-0.348836 -0.0532,-0.245279 0.10354,-0.485754 0.34884,-0.537532 0.24395,-0.05178 0.48575,0.103561 0.53753,0.348836 z"
         id="path1172"
         inkscape:export-xdpi="9.269887"
         inkscape:export-ydpi="9.269887"
         inkscape:export-filename="/home/adiala/Documents/mochila-cheia/images/logo.png" />
      <path
         style="fill:#ffffff;stroke-width:0.266898"
         d="m 286.42982,96.373461 c 0.0334,0.156668 -0.0862,0.315473 -0.26637,0.353906 l -2.39407,0.510309 c -0.17989,0.03816 -0.35391,-0.05791 -0.387,-0.215653 -0.0334,-0.15667 0.0862,-0.315474 0.26636,-0.353907 l 2.39408,-0.510309 c 0.17988,-0.03844 0.35364,0.05791 0.387,0.215654 z"
         id="path1174"
         inkscape:export-xdpi="9.269887"
         inkscape:export-ydpi="9.269887"
         inkscape:export-filename="/home/adiala/Documents/mochila-cheia/images/logo.png" />
      <path
         style="fill:#ecf0f1;stroke-width:0.266898"
         d="m 287.39999,98.432045 c 0.08,0.376059 -0.16014,0.745713 -0.53621,0.827116 -0.37605,0.08006 -0.7457,-0.160139 -0.82604,-0.536197 -0.08,-0.376059 0.15907,-0.747048 0.5362,-0.827117 0.37605,-0.08008 0.74705,0.160139 0.82712,0.536198 z"
         id="path1176"
         inkscape:export-xdpi="9.269887"
         inkscape:export-ydpi="9.269887"
         inkscape:export-filename="/home/adiala/Documents/mochila-cheia/images/logo.png" />
      <path
         style="fill:#ec4b53;stroke-width:0.266898"
         d="m 287.16218,98.483823 c 0.0532,0.24528 -0.10354,0.485754 -0.34883,0.537533 -0.24421,0.05311 -0.48576,-0.10356 -0.53754,-0.348836 -0.0518,-0.24528 0.10353,-0.485754 0.34884,-0.537533 0.24528,-0.05178 0.48576,0.10356 0.53753,0.348836 z"
         id="path1178"
         inkscape:export-xdpi="9.269887"
         inkscape:export-ydpi="9.269887"
         inkscape:export-filename="/home/adiala/Documents/mochila-cheia/images/logo.png" />
      <path
         style="fill:#ffffff;stroke-width:0.266898"
         d="m 286.89208,98.540673 c 0.0333,0.156668 -0.0862,0.315473 -0.26636,0.353906 l -2.39408,0.510309 c -0.17989,0.03816 -0.3539,-0.05791 -0.387,-0.215653 -0.0334,-0.15667 0.0862,-0.316809 0.26637,-0.354975 l 2.39407,-0.510309 c 0.17989,-0.03816 0.3539,0.05791 0.387,0.215654 z"
         id="path1180"
         inkscape:export-xdpi="9.269887"
         inkscape:export-ydpi="9.269887"
         inkscape:export-filename="/home/adiala/Documents/mochila-cheia/images/logo.png" />
      <path
         style="fill:#ecf0f1;stroke-width:0.266898"
         d="m 287.86226,100.60059 c 0.08,0.37606 -0.15907,0.74705 -0.5362,0.82712 -0.37607,0.0801 -0.74705,-0.16014 -0.82712,-0.5362 -0.08,-0.37606 0.16014,-0.74571 0.53619,-0.82605 0.37607,-0.08141 0.74572,0.15907 0.82713,0.53513 z"
         id="path1182"
         inkscape:export-xdpi="9.269887"
         inkscape:export-ydpi="9.269887"
         inkscape:export-filename="/home/adiala/Documents/mochila-cheia/images/logo.png" />
      <path
         style="fill:#ec4b53;stroke-width:0.266898"
         d="m 287.62445,100.65103 c 0.0518,0.24529 -0.10353,0.48576 -0.34884,0.53754 -0.24421,0.0518 -0.48575,-0.10356 -0.53753,-0.34884 -0.0531,-0.24421 0.10354,-0.48575 0.34883,-0.53753 0.24395,-0.0531 0.48576,0.10356 0.53754,0.34883 z"
         id="path1184"
         inkscape:export-xdpi="9.269887"
         inkscape:export-ydpi="9.269887"
         inkscape:export-filename="/home/adiala/Documents/mochila-cheia/images/logo.png" />
      <path
         style="fill:#ffffff;stroke-width:0.266898"
         d="m 287.35435,100.70895 c 0.0333,0.15667 -0.0862,0.31681 -0.26637,0.35498 l -2.39407,0.51031 c -0.1799,0.0382 -0.35391,-0.0593 -0.387,-0.21566 -0.0333,-0.15667 0.0862,-0.31547 0.26636,-0.35391 l 2.39407,-0.51164 c 0.1799,-0.0379 0.35391,0.0593 0.38701,0.21592 z"
         id="path1186"
         inkscape:export-xdpi="9.269887"
         inkscape:export-ydpi="9.269887"
         inkscape:export-filename="/home/adiala/Documents/mochila-cheia/images/logo.png" />
      <path
         style="fill:#ecf0f1;stroke-width:0.266898"
         d="m 288.32452,102.76754 c 0.08,0.37606 -0.16014,0.74571 -0.53619,0.82605 -0.37606,0.0801 -0.74572,-0.16014 -0.82712,-0.5362 -0.08,-0.37606 0.15906,-0.74572 0.5362,-0.82605 0.37606,-0.0801 0.7457,0.1604 0.82711,0.5362 z"
         id="path1188"
         inkscape:export-xdpi="9.269887"
         inkscape:export-ydpi="9.269887"
         inkscape:export-filename="/home/adiala/Documents/mochila-cheia/images/logo.png" />
      <path
         style="fill:#ec4b53;stroke-width:0.266898"
         d="m 288.08672,102.81825 c 0.0531,0.24528 -0.10354,0.48575 -0.34884,0.53753 -0.24421,0.0518 -0.48575,-0.10356 -0.53753,-0.34884 -0.0532,-0.24528 0.10353,-0.48575 0.34884,-0.5386 0.24527,-0.0518 0.48575,0.1049 0.53753,0.34884 z"
         id="path1190"
         inkscape:export-xdpi="9.269887"
         inkscape:export-ydpi="9.269887"
         inkscape:export-filename="/home/adiala/Documents/mochila-cheia/images/logo.png" />
      <path
         style="fill:#ffffff;stroke-width:0.266898"
         d="m 287.81662,102.87616 c 0.0333,0.15667 -0.0862,0.31548 -0.26636,0.35391 l -2.39409,0.51031 c -0.17988,0.0382 -0.3539,-0.0579 -0.387,-0.21459 -0.0333,-0.15667 0.0862,-0.31547 0.26636,-0.3539 l 2.39408,-0.51031 c 0.17989,-0.0382 0.35392,0.0579 0.38701,0.21565 z"
         id="path1192"
         inkscape:export-xdpi="9.269887"
         inkscape:export-ydpi="9.269887"
         inkscape:export-filename="/home/adiala/Documents/mochila-cheia/images/logo.png" />
      <path
         style="fill:#ecf0f1;stroke-width:0.266898"
         d="m 288.78679,104.93608 c 0.08,0.37606 -0.16014,0.74571 -0.5362,0.82712 -0.37606,0.0801 -0.74705,-0.16014 -0.82711,-0.5362 -0.08,-0.37606 0.16014,-0.74571 0.53619,-0.82712 0.37606,-0.0803 0.74572,0.16014 0.82712,0.5362 z"
         id="path1194"
         inkscape:export-xdpi="9.269887"
         inkscape:export-ydpi="9.269887"
         inkscape:export-filename="/home/adiala/Documents/mochila-cheia/images/logo.png" />
      <path
         style="fill:#ec4b53;stroke-width:0.266898"
         d="m 288.54898,104.98653 c 0.0518,0.24421 -0.10353,0.48575 -0.34883,0.53753 -0.24421,0.0531 -0.48576,-0.10356 -0.53754,-0.34884 -0.0531,-0.24528 0.10354,-0.48575 0.34884,-0.53753 0.24422,-0.0518 0.48575,0.10356 0.53753,0.34884 z"
         id="path1196"
         inkscape:export-xdpi="9.269887"
         inkscape:export-ydpi="9.269887"
         inkscape:export-filename="/home/adiala/Documents/mochila-cheia/images/logo.png" />
      <path
         style="fill:#ffffff;stroke-width:0.266898"
         d="m 288.27889,105.04444 c 0.0334,0.15667 -0.0862,0.31548 -0.26637,0.35391 l -2.39407,0.51031 c -0.17989,0.0382 -0.35391,-0.0579 -0.387,-0.21565 -0.0334,-0.15774 0.0862,-0.31681 0.26636,-0.35498 l 2.39408,-0.51031 c 0.17988,-0.0382 0.3539,0.0579 0.387,0.21566 z"
         id="path1198"
         inkscape:export-xdpi="9.269887"
         inkscape:export-ydpi="9.269887"
         inkscape:export-filename="/home/adiala/Documents/mochila-cheia/images/logo.png" />
      <path
         style="fill:#ecf0f1;stroke-width:0.266898"
         d="m 289.24906,107.10329 c 0.08,0.37606 -0.16014,0.74705 -0.53621,0.82712 -0.37605,0.0801 -0.7457,-0.15907 -0.82711,-0.5362 -0.08,-0.37606 0.15907,-0.74571 0.5362,-0.82605 0.37605,-0.0801 0.74572,0.16014 0.82712,0.5362 z"
         id="path1200"
         inkscape:export-xdpi="9.269887"
         inkscape:export-ydpi="9.269887"
         inkscape:export-filename="/home/adiala/Documents/mochila-cheia/images/logo.png" />
      <path
         style="fill:#ec4b53;stroke-width:0.266898"
         d="m 289.01125,107.15374 c 0.0531,0.24528 -0.10354,0.48575 -0.34883,0.53753 -0.24528,0.0518 -0.48576,-0.10356 -0.53754,-0.34883 -0.0518,-0.24422 0.10353,-0.48576 0.34884,-0.53754 0.24528,-0.0531 0.48576,0.10356 0.53753,0.34884 z"
         id="path1202"
         inkscape:export-xdpi="9.269887"
         inkscape:export-ydpi="9.269887"
         inkscape:export-filename="/home/adiala/Documents/mochila-cheia/images/logo.png" />
      <path
         style="fill:#ffffff;stroke-width:0.266898"
         d="m 288.74248,107.21166 c 0.0333,0.15666 -0.0862,0.31547 -0.26636,0.35497 l -2.39408,0.51031 c -0.17989,0.0382 -0.3539,-0.0579 -0.387,-0.21459 -0.0334,-0.15667 0.0862,-0.31547 0.26637,-0.35497 l 2.39407,-0.51031 c 0.17989,-0.0382 0.35391,0.0593 0.387,0.21565 z"
         id="path1204"
         inkscape:export-xdpi="9.269887"
         inkscape:export-ydpi="9.269887"
         inkscape:export-filename="/home/adiala/Documents/mochila-cheia/images/logo.png" />
      <path
         style="fill:#ecf0f1;stroke-width:0.266898"
         d="m 289.71133,109.27157 c 0.08,0.37606 -0.15907,0.74572 -0.5362,0.82605 -0.37607,0.0801 -0.74705,-0.16014 -0.82712,-0.5362 -0.08,-0.37605 0.16014,-0.74704 0.53619,-0.82604 0.37607,-0.0801 0.74572,0.16014 0.82713,0.53619 z"
         id="path1206"
         inkscape:export-xdpi="9.269887"
         inkscape:export-ydpi="9.269887"
         inkscape:export-filename="/home/adiala/Documents/mochila-cheia/images/logo.png" />
      <path
         style="fill:#ec4b53;stroke-width:0.266898"
         d="m 289.47352,109.32202 c 0.0518,0.24528 -0.10353,0.48575 -0.34884,0.53753 -0.24528,0.0518 -0.48576,-0.10356 -0.53753,-0.34883 -0.0531,-0.24528 0.10354,-0.48576 0.34883,-0.53754 0.24528,-0.0518 0.48576,0.10356 0.53754,0.34884 z"
         id="path1208"
         inkscape:export-xdpi="9.269887"
         inkscape:export-ydpi="9.269887"
         inkscape:export-filename="/home/adiala/Documents/mochila-cheia/images/logo.png" />
      <path
         style="fill:#ffffff;stroke-width:0.266898"
         d="m 289.20342,109.37993 c 0.0333,0.15667 -0.0862,0.31548 -0.26637,0.35498 l -2.39407,0.51031 c -0.1799,0.0382 -0.35391,-0.0579 -0.387,-0.21566 -0.0333,-0.15667 0.0862,-0.31547 0.26636,-0.3539 l 2.39407,-0.51031 c 0.1799,-0.0382 0.35391,0.0579 0.38701,0.21565 z"
         id="path1210"
         inkscape:export-xdpi="9.269887"
         inkscape:export-ydpi="9.269887"
         inkscape:export-filename="/home/adiala/Documents/mochila-cheia/images/logo.png" />
      <path
         style="fill:#ecf0f1;stroke-width:0.266898"
         d="m 290.17359,111.43879 c 0.08,0.37605 -0.16014,0.7457 -0.53619,0.82711 -0.37606,0.0801 -0.74572,-0.16014 -0.82712,-0.5362 -0.08,-0.37605 0.15906,-0.74704 0.5362,-0.82711 0.37606,-0.0803 0.74705,0.16014 0.82711,0.5362 z"
         id="path1212"
         inkscape:export-xdpi="9.269887"
         inkscape:export-ydpi="9.269887"
         inkscape:export-filename="/home/adiala/Documents/mochila-cheia/images/logo.png" />
      <path
         style="fill:#ec4b53;stroke-width:0.266898"
         d="m 289.93579,111.48923 c 0.0532,0.24528 -0.10354,0.48575 -0.34884,0.53753 -0.24528,0.0531 -0.48575,-0.10356 -0.53753,-0.34883 -0.0518,-0.24528 0.10353,-0.48576 0.34884,-0.53754 0.2442,-0.0518 0.48575,0.10356 0.53753,0.34884 z"
         id="path1214"
         inkscape:export-xdpi="9.269887"
         inkscape:export-ydpi="9.269887"
         inkscape:export-filename="/home/adiala/Documents/mochila-cheia/images/logo.png" />
      <path
         style="fill:#ffffff;stroke-width:0.266898"
         d="m 289.66702,111.54715 c 0.0333,0.15667 -0.0862,0.31547 -0.26636,0.3539 l -2.39514,0.51031 c -0.17883,0.0382 -0.35392,-0.0579 -0.387,-0.21566 -0.0334,-0.15666 0.0862,-0.31546 0.26636,-0.35496 l 2.39408,-0.51031 c 0.17988,-0.0382 0.3539,0.0579 0.387,0.21565 z"
         id="path1216"
         inkscape:export-xdpi="9.269887"
         inkscape:export-ydpi="9.269887"
         inkscape:export-filename="/home/adiala/Documents/mochila-cheia/images/logo.png" />
      <path
         style="fill:#ecf0f1;stroke-width:0.266898"
         d="m 290.63586,113.60599 c 0.08,0.37606 -0.15908,0.74705 -0.5362,0.82712 -0.37606,0.0801 -0.74705,-0.15907 -0.82711,-0.5362 -0.08,-0.37606 0.16014,-0.74571 0.53619,-0.82605 0.37606,-0.0814 0.74598,0.15907 0.82712,0.53513 z"
         id="path1218"
         inkscape:export-xdpi="9.269887"
         inkscape:export-ydpi="9.269887"
         inkscape:export-filename="/home/adiala/Documents/mochila-cheia/images/logo.png" />
      <path
         style="fill:#ec4b53;stroke-width:0.266898"
         d="m 290.39805,113.65777 c 0.0531,0.24528 -0.10353,0.48576 -0.34884,0.53753 -0.24527,0.0518 -0.48575,-0.10356 -0.53753,-0.34883 -0.0531,-0.24421 0.10354,-0.48576 0.34884,-0.53753 0.24422,-0.0531 0.48575,0.10329 0.53753,0.34883 z"
         id="path1220"
         inkscape:export-xdpi="9.269887"
         inkscape:export-ydpi="9.269887"
         inkscape:export-filename="/home/adiala/Documents/mochila-cheia/images/logo.png" />
      <path
         style="fill:#ffffff;stroke-width:0.266898"
         d="m 290.12796,113.71435 c 0.0334,0.15667 -0.0862,0.31548 -0.26637,0.35498 l -2.39407,0.51031 c -0.17989,0.0382 -0.35392,-0.0593 -0.387,-0.21566 -0.0334,-0.15667 0.0862,-0.31547 0.26636,-0.35497 l 2.39408,-0.51031 c 0.17988,-0.0382 0.3539,0.059 0.387,0.21565 z"
         id="path1222"
         inkscape:export-xdpi="9.269887"
         inkscape:export-ydpi="9.269887"
         inkscape:export-filename="/home/adiala/Documents/mochila-cheia/images/logo.png" />
      <path
         style="fill:#ecf0f1;stroke-width:0.266898"
         d="m 291.09947,115.77427 c 0.08,0.37606 -0.16014,0.74705 -0.5362,0.82606 -0.37607,0.08 -0.74572,-0.16014 -0.82713,-0.53621 -0.08,-0.37606 0.15908,-0.74571 0.5362,-0.82605 0.37607,-0.0801 0.74705,0.15908 0.82713,0.5362 z"
         id="path1224"
         inkscape:export-xdpi="9.269887"
         inkscape:export-ydpi="9.269887"
         inkscape:export-filename="/home/adiala/Documents/mochila-cheia/images/logo.png" />
      <path
         style="fill:#ec4b53;stroke-width:0.266898"
         d="m 290.86032,115.82472 c 0.0532,0.24528 -0.10354,0.48575 -0.34883,0.53859 -0.24528,0.0518 -0.48576,-0.10353 -0.53754,-0.34883 -0.0518,-0.24528 0.10353,-0.48575 0.34884,-0.53753 0.24421,-0.0518 0.48575,0.10356 0.53753,0.34883 z"
         id="path1226"
         inkscape:export-xdpi="9.269887"
         inkscape:export-ydpi="9.269887"
         inkscape:export-filename="/home/adiala/Documents/mochila-cheia/images/logo.png" />
      <path
         style="fill:#ffffff;stroke-width:0.266898"
         d="m 290.59155,115.88263 c 0.0333,0.15667 -0.0862,0.31548 -0.26636,0.35392 l -2.39514,0.5103 c -0.17883,0.0382 -0.35391,-0.0579 -0.387,-0.21566 -0.0333,-0.15667 0.0862,-0.31546 0.26636,-0.35497 l 2.39407,-0.51031 c 0.1799,-0.0382 0.35391,0.0579 0.387,0.21566 z"
         id="path1228"
         inkscape:export-xdpi="9.269887"
         inkscape:export-ydpi="9.269887"
         inkscape:export-filename="/home/adiala/Documents/mochila-cheia/images/logo.png" />
      <path
         style="fill:#ecf0f1;stroke-width:0.266898"
         d="m 291.5604,117.94148 c 0.0814,0.37606 -0.15907,0.74572 -0.53513,0.82606 -0.37607,0.08 -0.74705,-0.16014 -0.82713,-0.53621 -0.08,-0.37606 0.16014,-0.74705 0.5362,-0.82711 0.37607,-0.08 0.74572,0.15907 0.82606,0.53619 z"
         id="path1230"
         inkscape:export-xdpi="9.269887"
         inkscape:export-ydpi="9.269887"
         inkscape:export-filename="/home/adiala/Documents/mochila-cheia/images/logo.png" />
      <path
         style="fill:#ec4b53;stroke-width:0.266898"
         d="m 291.32259,117.99326 c 0.0531,0.24422 -0.10353,0.48575 -0.34884,0.53753 -0.24528,0.0532 -0.48576,-0.10353 -0.53753,-0.34883 -0.0531,-0.24528 0.10354,-0.48576 0.34883,-0.53754 0.24422,-0.0518 0.48576,0.10354 0.53754,0.34884 z"
         id="path1232"
         inkscape:export-xdpi="9.269887"
         inkscape:export-ydpi="9.269887"
         inkscape:export-filename="/home/adiala/Documents/mochila-cheia/images/logo.png" />
      <path
         style="fill:#ffffff;stroke-width:0.266898"
         d="m 291.05382,118.04984 c 0.0334,0.15668 -0.0862,0.31548 -0.26637,0.35391 l -2.39407,0.51031 c -0.17988,0.0382 -0.35391,-0.0593 -0.387,-0.21565 -0.0333,-0.15774 0.0862,-0.31681 0.26636,-0.35497 l 2.39408,-0.51032 c 0.17989,-0.0382 0.3539,0.0593 0.387,0.21566 z"
         id="path1234"
         inkscape:export-xdpi="9.269887"
         inkscape:export-ydpi="9.269887"
         inkscape:export-filename="/home/adiala/Documents/mochila-cheia/images/logo.png" />
      <path
         style="fill:#ecf0f1;stroke-width:0.266898"
         d="m 292.02399,120.1087 c 0.08,0.37605 -0.16014,0.74705 -0.53619,0.82711 -0.37606,0.08 -0.74572,-0.16014 -0.82712,-0.5362 -0.08,-0.37605 0.15908,-0.74571 0.5362,-0.82604 0.37606,-0.08 0.74705,0.16014 0.82711,0.53513 z"
         id="path1236"
         inkscape:export-xdpi="9.269887"
         inkscape:export-ydpi="9.269887"
         inkscape:export-filename="/home/adiala/Documents/mochila-cheia/images/logo.png" />
      <path
         style="fill:#ec4b53;stroke-width:0.266898"
         d="m 291.78486,120.16048 c 0.0531,0.24528 -0.10354,0.48575 -0.34884,0.53753 -0.24421,0.0518 -0.48575,-0.10354 -0.53753,-0.34883 -0.0518,-0.24421 0.10353,-0.48576 0.34883,-0.53754 0.24421,-0.052 0.48576,0.10328 0.53754,0.34884 z"
         id="path1238"
         inkscape:export-xdpi="9.269887"
         inkscape:export-ydpi="9.269887"
         inkscape:export-filename="/home/adiala/Documents/mochila-cheia/images/logo.png" />
      <path
         style="fill:#ffffff;stroke-width:0.266898"
         d="m 291.51609,120.21839 c 0.0333,0.15667 -0.0862,0.31548 -0.26636,0.35497 l -2.39514,0.51031 c -0.17883,0.0382 -0.35392,-0.0593 -0.38702,-0.21565 -0.0333,-0.15667 0.0862,-0.31681 0.26637,-0.35497 l 2.39409,-0.51031 c 0.17988,-0.0382 0.3539,0.0593 0.387,0.21565 z"
         id="path1240"
         inkscape:export-xdpi="9.269887"
         inkscape:export-ydpi="9.269887"
         inkscape:export-filename="/home/adiala/Documents/mochila-cheia/images/logo.png" />
      <path
         style="fill:#ecf0f1;stroke-width:0.266898"
         d="m 292.48519,122.27698 c 0.0814,0.37606 -0.15906,0.7457 -0.53513,0.82604 -0.37605,0.08 -0.74705,-0.16014 -0.82711,-0.53619 -0.08,-0.37606 0.16014,-0.74705 0.5362,-0.82605 0.37605,-0.08 0.74571,0.16013 0.82604,0.5362 z"
         id="path1242"
         inkscape:export-xdpi="9.269887"
         inkscape:export-ydpi="9.269887"
         inkscape:export-filename="/home/adiala/Documents/mochila-cheia/images/logo.png" />
      <path
         style="fill:#ec4b53;stroke-width:0.266898"
         d="m 292.24712,122.32742 c 0.0531,0.24528 -0.10353,0.48576 -0.34884,0.5386 -0.24528,0.0518 -0.48575,-0.10491 -0.53753,-0.34884 -0.0518,-0.24528 0.10354,-0.48574 0.34884,-0.53752 0.24422,-0.0518 0.48575,0.10353 0.53753,0.34882 z"
         id="path1244"
         inkscape:export-xdpi="9.269887"
         inkscape:export-ydpi="9.269887"
         inkscape:export-filename="/home/adiala/Documents/mochila-cheia/images/logo.png" />
      <path
         style="fill:#ffffff;stroke-width:0.266898"
         d="m 291.97836,122.38534 c 0.0334,0.15666 -0.0862,0.3168 -0.26637,0.35497 l -2.39407,0.51032 c -0.17989,0.0382 -0.3539,-0.0579 -0.387,-0.21567 -0.0334,-0.15666 0.0862,-0.31547 0.26636,-0.3539 l 2.39408,-0.5103 c 0.17988,-0.0382 0.3539,0.0579 0.387,0.21565 z"
         id="path1246"
         inkscape:export-xdpi="9.269887"
         inkscape:export-ydpi="9.269887"
         inkscape:export-filename="/home/adiala/Documents/mochila-cheia/images/logo.png" />
      <path
         style="fill:#ecf0f1;stroke-width:0.266898"
         d="m 292.94854,124.44525 c 0.08,0.37607 -0.16014,0.74572 -0.5362,0.82606 -0.37607,0.08 -0.74572,-0.16014 -0.82713,-0.5362 -0.08,-0.37607 0.15908,-0.74705 0.5362,-0.82606 0.37607,-0.08 0.74572,0.15908 0.82713,0.5362 z"
         id="path1248"
         inkscape:export-xdpi="9.269887"
         inkscape:export-ydpi="9.269887"
         inkscape:export-filename="/home/adiala/Documents/mochila-cheia/images/logo.png" />
      <path
         style="fill:#ec4b53;stroke-width:0.266898"
         d="m 292.70939,124.49596 c 0.0531,0.24528 -0.10354,0.48576 -0.34883,0.53754 -0.24528,0.0532 -0.48576,-0.10353 -0.53754,-0.34884 -0.0518,-0.24528 0.10353,-0.48575 0.34884,-0.53753 0.24421,-0.0518 0.48575,0.10354 0.53753,0.34883 z"
         id="path1250"
         inkscape:export-xdpi="9.269887"
         inkscape:export-ydpi="9.269887"
         inkscape:export-filename="/home/adiala/Documents/mochila-cheia/images/logo.png" />
      <path
         style="fill:#ffffff;stroke-width:0.266898"
         d="m 292.44062,124.55389 c 0.0333,0.15666 -0.0862,0.31546 -0.26636,0.3539 l -2.39514,0.51165 c -0.17883,0.0382 -0.35391,-0.0593 -0.387,-0.21566 -0.0333,-0.15667 0.0862,-0.31548 0.26636,-0.35497 l 2.39407,-0.51031 c 0.1799,-0.0382 0.35391,0.0579 0.387,0.21565 h 10e-4 z"
         id="path1252"
         inkscape:export-xdpi="9.269887"
         inkscape:export-ydpi="9.269887"
         inkscape:export-filename="/home/adiala/Documents/mochila-cheia/images/logo.png" />
      <path
         style="fill:#ecf0f1;stroke-width:0.266898"
         d="m 293.40973,126.61246 c 0.08,0.37606 -0.16014,0.74705 -0.53513,0.82713 -0.37607,0.08 -0.74705,-0.16014 -0.82712,-0.53621 -0.08,-0.37606 0.16014,-0.74704 0.53621,-0.82604 0.37605,-0.08 0.7457,0.15907 0.82604,0.53512 z"
         id="path1254"
         inkscape:export-xdpi="9.269887"
         inkscape:export-ydpi="9.269887"
         inkscape:export-filename="/home/adiala/Documents/mochila-cheia/images/logo.png" />
      <path
         style="fill:#ec4b53;stroke-width:0.266898"
         d="m 293.17166,126.66318 c 0.0532,0.24421 -0.10353,0.48576 -0.34884,0.53752 -0.24528,0.0518 -0.48576,-0.10353 -0.53753,-0.34882 -0.0518,-0.24422 0.10354,-0.48576 0.34883,-0.53753 0.24422,-0.0532 0.48576,0.10328 0.53754,0.34883 z"
         id="path1256"
         inkscape:export-xdpi="9.269887"
         inkscape:export-ydpi="9.269887"
         inkscape:export-filename="/home/adiala/Documents/mochila-cheia/images/logo.png" />
      <path
         style="fill:#ffffff;stroke-width:0.266898"
         d="m 292.90289,126.7211 c 0.0334,0.15666 -0.0862,0.31547 -0.26502,0.35497 l -2.39515,0.5103 c -0.17989,0.0382 -0.35391,-0.0579 -0.38701,-0.21458 -0.0334,-0.15773 0.0862,-0.31547 0.26637,-0.35497 l 2.39407,-0.51032 c 0.17989,-0.0382 0.35392,0.0593 0.38701,0.21566 v -0.001 z"
         id="path1258"
         inkscape:export-xdpi="9.269887"
         inkscape:export-ydpi="9.269887"
         inkscape:export-filename="/home/adiala/Documents/mochila-cheia/images/logo.png" />
      <path
         style="fill:#ecf0f1;stroke-width:0.266898"
         d="m 293.87306,128.77968 c 0.08,0.37606 -0.16014,0.74705 -0.53619,0.82711 -0.37606,0.08 -0.74572,-0.16014 -0.82712,-0.5362 -0.08,-0.37605 0.15908,-0.7457 0.5362,-0.82604 0.37606,-0.08 0.74571,0.16014 0.82711,0.5362 z"
         id="path1260"
         inkscape:export-xdpi="9.269887"
         inkscape:export-ydpi="9.269887"
         inkscape:export-filename="/home/adiala/Documents/mochila-cheia/images/logo.png" />
      <path
         style="fill:#ec4b53;stroke-width:0.266898"
         d="m 293.63393,128.83013 c 0.0531,0.24528 -0.10354,0.48575 -0.34884,0.53753 -0.24528,0.0518 -0.48575,-0.10354 -0.53753,-0.34885 -0.0518,-0.24421 0.10353,-0.48574 0.34883,-0.53752 0.24421,-0.0529 0.48576,0.10353 0.53754,0.34884 z"
         id="path1262"
         inkscape:export-xdpi="9.269887"
         inkscape:export-ydpi="9.269887"
         inkscape:export-filename="/home/adiala/Documents/mochila-cheia/images/logo.png" />
      <path
         style="fill:#ffffff;stroke-width:0.266898"
         d="m 293.3641,128.88937 c 0.0333,0.15667 -0.0862,0.31548 -0.26504,0.3539 l -2.39514,0.51032 c -0.17882,0.0382 -0.3539,-0.0579 -0.387,-0.21459 -0.0334,-0.15667 0.0862,-0.31546 0.26636,-0.35497 l 2.39408,-0.51031 c 0.17962,-0.0382 0.35336,0.0579 0.38674,0.21565 z"
         id="path1264"
         inkscape:export-xdpi="9.269887"
         inkscape:export-ydpi="9.269887"
         inkscape:export-filename="/home/adiala/Documents/mochila-cheia/images/logo.png" />
      <path
         style="fill:#ecf0f1;stroke-width:0.266898"
         d="m 294.33426,130.94796 c 0.08,0.37606 -0.16014,0.74571 -0.53513,0.82605 -0.37605,0.08 -0.74705,-0.16014 -0.82711,-0.53513 -0.08,-0.37606 0.16014,-0.74705 0.5362,-0.82712 0.37605,-0.08 0.74704,0.16041 0.82604,0.5362 z"
         id="path1266"
         inkscape:export-xdpi="9.269887"
         inkscape:export-ydpi="9.269887"
         inkscape:export-filename="/home/adiala/Documents/mochila-cheia/images/logo.png" />
      <path
         style="fill:#ec4b53;stroke-width:0.266898"
         d="m 294.09619,130.99867 c 0.0518,0.24422 -0.10353,0.48575 -0.34884,0.53753 -0.24528,0.0531 -0.48575,-0.10353 -0.53753,-0.34884 -0.0518,-0.24528 0.10354,-0.48575 0.34884,-0.53753 0.24422,-0.0518 0.48575,0.10467 0.53753,0.34884 z"
         id="path1268"
         inkscape:export-xdpi="9.269887"
         inkscape:export-ydpi="9.269887"
         inkscape:export-filename="/home/adiala/Documents/mochila-cheia/images/logo.png" />
      <path
         style="fill:#ffffff;stroke-width:0.266898"
         d="m 293.82743,131.05659 c 0.0334,0.15667 -0.0862,0.31548 -0.26637,0.3539 l -2.39407,0.51031 c -0.17989,0.0382 -0.3539,-0.0579 -0.387,-0.21565 -0.0334,-0.15667 0.0862,-0.31681 0.26636,-0.35497 l 2.39408,-0.51032 c 0.17881,-0.0382 0.3539,0.0579 0.387,0.21566 z"
         id="path1270"
         inkscape:export-xdpi="9.269887"
         inkscape:export-ydpi="9.269887"
         inkscape:export-filename="/home/adiala/Documents/mochila-cheia/images/logo.png" />
      <path
         style="fill:#ecf0f1;stroke-width:0.266898"
         d="m 294.79761,133.11518 c 0.08,0.37605 -0.16014,0.7457 -0.53621,0.82711 -0.37606,0.08 -0.74704,-0.16014 -0.82712,-0.5362 -0.08,-0.37605 0.15908,-0.74572 0.5362,-0.82712 0.37606,-0.08 0.74572,0.15907 0.82606,0.53621 z"
         id="path1272"
         inkscape:export-xdpi="9.269887"
         inkscape:export-ydpi="9.269887"
         inkscape:export-filename="/home/adiala/Documents/mochila-cheia/images/logo.png" />
      <path
         style="fill:#ec4b53;stroke-width:0.266898"
         d="m 294.55846,133.16694 c 0.0532,0.24528 -0.10354,0.48576 -0.34883,0.53754 -0.24528,0.0532 -0.48576,-0.10353 -0.53754,-0.34884 -0.0518,-0.24421 0.10353,-0.48574 0.34884,-0.53752 0.24421,-0.0532 0.48575,0.10353 0.53753,0.34882 z"
         id="path1274"
         inkscape:export-xdpi="9.269887"
         inkscape:export-ydpi="9.269887"
         inkscape:export-filename="/home/adiala/Documents/mochila-cheia/images/logo.png" />
      <path
         style="fill:#ffffff;stroke-width:0.266898"
         d="m 294.28862,133.2238 c 0.0334,0.15667 -0.0862,0.31547 -0.26503,0.35497 l -2.39407,0.51031 c -0.17989,0.0382 -0.35391,-0.0593 -0.387,-0.21565 -0.0344,-0.15667 0.0852,-0.31548 0.26503,-0.35498 l 2.39407,-0.5103 c 0.17855,-0.0384 0.35364,0.0589 0.387,0.21565 z"
         id="path1276"
         inkscape:export-xdpi="9.269887"
         inkscape:export-ydpi="9.269887"
         inkscape:export-filename="/home/adiala/Documents/mochila-cheia/images/logo.png" />
      <path
         style="fill:#ecf0f1;stroke-width:0.266898"
         d="m 282.69965,174.99146 c 0,0 -1.98092,0.12327 -1.98092,1.1378 0,1.01581 0,2.99566 0,3.36665 0,0.37098 0.42036,0.34643 0.66804,0.34643 0.24768,0 1.31155,0 1.31155,0 0,0 1.06518,0 1.31153,0 0.24768,0 0.66938,0.0245 0.66938,-0.34643 0,-0.37099 0,-2.35217 0,-3.36665 0,-1.01448 -1.98091,-1.1378 -1.98091,-1.1378 z"
         id="path1278"
         inkscape:export-xdpi="9.269887"
         inkscape:export-ydpi="9.269887"
         inkscape:export-filename="/home/adiala/Documents/mochila-cheia/images/logo.png" />
      <path
         style="fill:#ffffff;stroke-width:0.266898"
         d="m 284.11101,180.19865 c 0,-1.08974 -0.29706,-1.78261 -1.38681,-1.78261 h -0.0494 c -1.08973,0 -1.38679,0.69287 -1.38679,1.78261 l -0.59412,6.53473 c 0,1.08975 0.89118,1.98092 1.98091,1.98092 h 0.0494 c 1.08975,0 1.98091,-0.89117 1.98091,-1.98092 z m -1.41136,-1.27097 v 0 c 0.43023,0 0.78041,0.35016 0.78041,0.77908 0,0.43157 -0.35018,0.78041 -0.78041,0.78041 -0.43024,0 -0.78041,-0.34884 -0.78041,-0.78041 0,-0.43025 0.35017,-0.77908 0.78041,-0.77908 z m 0,9.06919 v 0 c -0.78041,0 -1.41136,-0.63228 -1.41136,-1.41135 0,-0.77908 0.63121,-1.41136 1.41136,-1.41136 0.77908,0 1.41136,0.63121 1.41136,1.41136 0,0.77881 -0.63122,1.41135 -1.41136,1.41135 z"
         id="path1280"
         inkscape:export-xdpi="9.269887"
         inkscape:export-ydpi="9.269887"
         inkscape:export-filename="/home/adiala/Documents/mochila-cheia/images/logo.png" />
      <path
         style="fill:#3f3a3b;stroke-width:0.266898"
         d="m 283.20755,179.73371 c 0,0.22446 -0.22793,0.40676 -0.5079,0.40676 -0.27997,0 -0.50791,-0.18256 -0.50791,-0.40676 v -4.7313 c 0,-0.22313 0.22794,-0.40675 0.50791,-0.40675 0.27864,0 0.5079,0.18362 0.5079,0.40675 z"
         id="path1282"
         inkscape:export-xdpi="9.269887"
         inkscape:export-ydpi="9.269887"
         inkscape:export-filename="/home/adiala/Documents/mochila-cheia/images/logo.png" />
      <path
         style="fill:#fbb429;stroke-width:0.266898"
         d="m 336.48521,115.97898 3.03863,1.19197 10.28838,-26.233936 -3.03863,-1.190898 -10.28838,26.233934 z"
         id="path1284"
         inkscape:export-xdpi="9.269887"
         inkscape:export-ydpi="9.269887"
         inkscape:export-filename="/home/adiala/Documents/mochila-cheia/images/logo.png" />
      <g
         id="g1290"
         transform="matrix(0.26689801,0,0,0.26689801,253.92617,73.02282)"
         inkscape:export-xdpi="9.269887"
         inkscape:export-ydpi="9.269887"
         inkscape:export-filename="/home/adiala/Documents/mochila-cheia/images/logo.png">
        <path
           style="fill:#ff5b61"
           d="m 306.816,184.118 13.898,-18.711 -11.385,-4.462 z"
           id="path1286" />
        <path
           style="fill:#ff5b61"
           d="m 353.973,53.98 6.711,2.633 c 1.843,0.725 2.707,2.965 1.921,4.974 l -17.921,45.693 -13.422,-5.265 17.921,-45.694 c 0.791,-2.013 2.947,-3.067 4.79,-2.341 z"
           id="path1288" />
      </g>
      <path
         style="fill:#ec4b53;stroke-width:0.266898"
         d="m 350.23285,88.148465 c 0.4636,0.209514 0.67552,0.78895 0.47214,1.310468 l -4.78308,12.195637 -0.85433,-0.33522 z m -6.99966,12.452125 v 0 l 5.16634,-13.17195 c -0.4919,-0.192433 -1.06626,0.08887 -1.2771,0.626143 l -4.78309,12.195637 0.89491,0.35124 z"
         id="path1292"
         inkscape:export-xdpi="9.269887"
         inkscape:export-ydpi="9.269887"
         inkscape:export-filename="/home/adiala/Documents/mochila-cheia/images/logo.png" />
      <path
         style="fill:#666666;stroke-width:0.266898"
         d="m 335.59403,122.542 0.12571,0.0494 1.48555,-2.30039 -1.13298,-0.44493 -0.47828,2.69488 z"
         id="path1294"
         inkscape:export-xdpi="9.269887"
         inkscape:export-ydpi="9.269887"
         inkscape:export-filename="/home/adiala/Documents/mochila-cheia/images/logo.png" />
      <path
         style="fill:#0e7886;stroke-width:0.266898"
         d="m 346.68125,89.182694 4.36644,1.747915 0.27491,0.109692 -0.11723,0.298392 -3.56255,9.084137 -0.0358,0.0937 -0.0814,0.0593 -0.66938,0.48442 c -0.33042,0.21699 -0.68299,-0.18736 -0.31681,-0.52151 l 0.58691,-0.42517 3.40855,-8.69207 -4.0902,-1.638221 0.2378,-0.600253 h -10e-4 z"
         id="path1296"
         inkscape:export-xdpi="9.269887"
         inkscape:export-ydpi="9.269887"
         inkscape:export-filename="/home/adiala/Documents/mochila-cheia/images/logo.png" />
      <path
         style="fill:#ff5b61;stroke-width:0.266898"
         d="m 335.19208,120.42898 c -0.17376,0.699 -0.8813,1.12417 -1.5803,0.94908 l -0.39821,-0.0985 c -0.69901,-0.17375 -1.12312,-0.88129 -0.94909,-1.57924 l 0.48068,-1.92913 c 0.17375,-0.699 0.88129,-1.12311 1.57924,-0.9491 l 0.39821,0.0985 c 0.699,0.17376 1.1231,0.88131 0.94909,1.57924 z"
         id="path1298"
         inkscape:export-xdpi="9.269887"
         inkscape:export-ydpi="9.269887"
         inkscape:export-filename="/home/adiala/Documents/mochila-cheia/images/logo.png" />
      <g
         id="g1304"
         transform="matrix(0.26689801,0,0,0.26689801,253.92617,73.02282)"
         inkscape:export-xdpi="9.269887"
         inkscape:export-ydpi="9.269887"
         inkscape:export-filename="/home/adiala/Documents/mochila-cheia/images/logo.png">
        <path
           style="fill:#fbab08"
           d="m 296.502,162.886 10.97,2.73 -1.52,6.111 -10.97,-2.73 1.52,-6.106 z"
           id="path1300" />
        <path
           style="fill:#fbab08"
           d="m 298.271,155.791 10.97,2.73 -1.145,4.6 -10.965,-2.73 1.145,-4.6 z"
           id="path1302" />
      </g>
      <path
         style="fill:#fbb429;stroke-width:0.266898"
         d="m 344.07392,78.508642 c -10e-4,0.0024 -3.33089,6.842998 -3.27911,6.926804 l 1.41269,0.567158 1.51385,0.161474 c 0.0852,-0.05045 0.35122,-7.652767 0.35122,-7.655436 z"
         id="path1306"
         inkscape:export-xdpi="9.269887"
         inkscape:export-ydpi="9.269887"
         inkscape:export-filename="/home/adiala/Documents/mochila-cheia/images/logo.png" />
      <path
         style="fill:#666666;stroke-width:0.266898"
         d="m 343.31966,81.542204 c 0.21458,0.05311 0.42783,0.08994 0.63869,0.113437 0.0653,-1.661708 0.11723,-3.145927 0.11723,-3.147262 0,0.0014 -0.65097,1.337426 -1.37212,2.835258 0.19723,0.07766 0.40194,0.145459 0.61626,0.199639 z"
         id="path1308"
         inkscape:export-xdpi="9.269887"
         inkscape:export-ydpi="9.269887"
         inkscape:export-filename="/home/adiala/Documents/mochila-cheia/images/logo.png" />
      <path
         style="fill:#fbb429;stroke-width:0.266898"
         d="m 334.80374,118.28418 0.31814,-1.2747 0.16522,-0.66564 0.30559,-1.22774 -1.18956,-0.29599 -0.3056,1.22773 -0.16521,0.66565 -0.31814,1.2747 -0.0876,0.35631 1.18956,0.296 z"
         id="path1310"
         inkscape:export-xdpi="9.269887"
         inkscape:export-ydpi="9.269887"
         inkscape:export-filename="/home/adiala/Documents/mochila-cheia/images/logo.png" />
      <path
         style="fill:#ffffff;stroke-width:0.266898"
         d="m 333.06196,116.49677 2.92787,0.72862 0.16522,-0.66564 -2.92654,-0.72863 z"
         id="path1312"
         inkscape:export-xdpi="9.269887"
         inkscape:export-ydpi="9.269887"
         inkscape:export-filename="/home/adiala/Documents/mochila-cheia/images/logo.png" />
      <path
         style="fill:#ec4b53;stroke-width:0.266898"
         d="m 341.49274,84.71669 c -0.26876,-0.06646 -0.62241,0.41903 -0.69152,0.696603 -0.003,0.0074 -0.003,0.01468 -0.004,0.02348 h -0.003 l -7.26202,29.167947 0.96883,0.24154 7.29165,-29.287515 c 0.032,-0.299459 -0.0592,-0.780409 -0.30079,-0.840728 z"
         id="path1314"
         inkscape:export-xdpi="9.269887"
         inkscape:export-ydpi="9.269887"
         inkscape:export-filename="/home/adiala/Documents/mochila-cheia/images/logo.png" />
      <path
         style="fill:#ff5b61;stroke-width:0.266898"
         d="m 342.46906,84.959567 c -0.27011,-0.06779 -0.62242,0.419029 -0.69154,0.696604 -0.003,0.0074 -10e-4,0.01468 -0.004,0.02348 l -0.005,-0.0014 c 0.003,-0.0074 0.006,-0.01361 0.008,-0.02108 0.008,-0.02963 0.0126,-0.06406 0.016,-0.09982 l -7.29165,29.287519 0.98006,0.24421 7.2831,-29.255489 c 0.0432,-0.29599 -0.047,-0.811103 -0.29704,-0.872757 z"
         id="path1316"
         inkscape:export-xdpi="9.269887"
         inkscape:export-ydpi="9.269887"
         inkscape:export-filename="/home/adiala/Documents/mochila-cheia/images/logo.png" />
      <path
         style="fill:#ec4b53;stroke-width:0.266898"
         d="m 343.44404,85.202177 c -0.27011,-0.06646 -0.62241,0.420364 -0.69154,0.697671 -0.003,0.0074 -0.003,0.01468 -0.004,0.02215 l -0.005,-0.0014 c 0.003,-0.0074 0.006,-0.01361 0.008,-0.02108 0.005,-0.02108 0.009,-0.04324 0.0126,-0.06779 l -7.28311,29.255482 0.97871,0.24421 7.26097,-29.167938 -0.003,-0.0014 c 0.003,-0.0074 0.006,-0.01361 0.008,-0.02215 0.0691,-0.277308 -0.0147,-0.872758 -0.28344,-0.94055 z"
         id="path1318"
         inkscape:export-xdpi="9.269887"
         inkscape:export-ydpi="9.269887"
         inkscape:export-filename="/home/adiala/Documents/mochila-cheia/images/logo.png" />
      <path
         style="fill:#20d0c2;stroke-width:0.266898"
         d="m 349.4746,119.17295 c -5.37107,-5.43137 -14.08661,-8.3531 -25.92462,-8.6982 -0.0579,-0.0211 -0.11961,-0.0344 -0.18495,-0.0344 -0.37473,0 -0.74572,0.004 -1.1143,0.007 -0.36859,-0.005 -0.7385,-0.007 -1.11323,-0.007 -0.0653,0 -0.12704,0.0136 -0.18497,0.0344 -11.83799,0.34403 -20.5522,3.26683 -25.9246,8.6982 -5.21705,5.27498 -5.21572,10.92573 -5.21332,11.16381 0.004,0.29706 0.24528,0.53513 0.54127,0.53513 l -0.41289,39.67199 h 64.19618 v -39.67225 c 0.003,0 0.004,0 0.006,0 0.29598,0 0.53753,-0.23781 0.54126,-0.5362 0.003,-0.23781 0.005,-5.88884 -5.21331,-11.16381 z"
         id="path1320"
         inkscape:export-xdpi="9.269887"
         inkscape:export-ydpi="9.269887"
         inkscape:export-filename="/home/adiala/Documents/mochila-cheia/images/logo.png" />
      <path
         style="fill:#15bdb1;stroke-width:0.266898"
         d="m 290.12181,153.50484 -0.17748,17.03904 h 64.19617 v -17.44339 c -3.3888,-5.49062 -12.31013,-11.75178 -31.88844,-11.75178 v 0 c -20.06165,0 -28.93361,6.57423 -32.13025,12.15613 z"
         id="path1322"
         inkscape:export-xdpi="9.269887"
         inkscape:export-ydpi="9.269887"
         inkscape:export-filename="/home/adiala/Documents/mochila-cheia/images/logo.png" />
      <path
         style="fill:#e97c27;fill-opacity:1;stroke-width:0.266898"
         d="m 355.89109,197.54568 c 0,-3.46514 0,-31.83932 0,-37.03636 0,-5.19838 -6.82565,-16.46067 -33.64036,-16.46067 v 0 c -26.81445,0 -33.63902,11.26229 -33.63902,16.46067 0,5.19837 0,33.57122 0,37.03636 0,3.46514 -0.64964,9.5304 5.20104,9.5304 5.84934,0 28.43451,0 28.43931,0 v 0 c 0.005,0 22.58998,0 28.43933,0 5.85066,0 5.1997,-6.06526 5.1997,-9.5304 z"
         id="path1324"
         inkscape:export-xdpi="9.269887"
         inkscape:export-ydpi="9.269887"
         inkscape:export-filename="/home/adiala/Documents/mochila-cheia/images/logo.png" />
      <g
         id="g1332"
         transform="matrix(0.26689801,0,0,0.26689801,253.92617,73.02282)"
         inkscape:export-xdpi="9.269887"
         inkscape:export-ydpi="9.269887"
         inkscape:export-filename="/home/adiala/Documents/mochila-cheia/images/logo.png">
        <path
           style="fill:#ffffff"
           d="m 364.883,324.709 c -0.125,-0.448 -3.192,-11.122 -18.452,-21.648 -19.93,-13.745 -50.358,-20.72 -90.436,-20.72 -40.078,0 -70.506,6.97 -90.436,20.72 -15.26,10.526 -18.323,21.2 -18.452,21.648 -0.351,1.289 0.406,2.619 1.695,2.979 0.217,0.06 0.439,0.092 0.656,0.092 1.058,0 2.037,-0.702 2.342,-1.769 0.028,-0.097 2.919,-9.723 16.988,-19.256 13.15,-8.914 38.959,-19.542 87.207,-19.542 48.248,0 74.057,10.623 87.207,19.542 14.004,9.492 16.932,19.071 16.983,19.256 0.3,1.076 1.275,1.783 2.342,1.783 0.212,0 0.43,-0.028 0.642,-0.088 1.298,-0.356 2.06,-1.695 1.709,-2.993 z"
           id="path1326" />
        <path
           style="fill:#ffffff"
           d="m 361.779,319.296 c 0,0 -7.422,0.462 -7.422,4.268 0,3.801 0,11.224 0,12.614 0,1.39 1.575,1.298 2.503,1.298 0.928,0 4.914,0 4.914,0 0,0 3.991,0 4.914,0 0.928,0 2.503,0.092 2.503,-1.298 0,-1.39 0,-8.813 0,-12.614 0,-3.801 -7.422,-4.268 -7.422,-4.268 z"
           id="path1328" />
        <path
           style="fill:#ffffff"
           d="m 367.068,338.801 c 0,-4.083 -1.113,-6.679 -5.196,-6.679 h -0.185 c -4.078,0 -5.196,2.596 -5.196,6.679 l -2.226,24.489 c 0,4.078 3.339,7.418 7.422,7.418 h 0.185 c 4.083,0 7.422,-3.339 7.422,-7.418 z m -5.289,-4.762 v 0 c 1.612,0 2.924,1.307 2.924,2.919 0,1.612 -1.312,2.924 -2.924,2.924 -1.612,0 -2.924,-1.307 -2.924,-2.924 0,-1.612 1.312,-2.919 2.924,-2.919 z m 0,33.975 v 0 c -2.919,0 -5.288,-2.369 -5.288,-5.289 0,-2.919 2.365,-5.288 5.288,-5.288 2.919,0 5.288,2.365 5.288,5.288 10e-4,2.92 -2.364,5.289 -5.288,5.289 z"
           id="path1330" />
      </g>
      <g
         id="g1338"
         transform="matrix(0.26689801,0,0,0.26689801,253.92617,73.02282)"
         inkscape:export-xdpi="9.269887"
         inkscape:export-ydpi="9.269887"
         inkscape:export-filename="/home/adiala/Documents/mochila-cheia/images/logo.png">
        <path
           style="fill:#ecf0f1"
           d="m 363.682,337.059 c 0,0.836 -0.854,1.524 -1.903,1.524 -1.044,0 -1.903,-0.688 -1.903,-1.524 v -17.727 c 0,-0.841 0.859,-1.524 1.903,-1.524 1.048,0 1.903,0.684 1.903,1.524 z"
           id="path1334" />
        <path
           style="fill:#ecf0f1"
           d="m 357.996,172.913 c -20.124,-20.35 -52.779,-31.297 -97.133,-32.59 -0.217,-0.079 -0.448,-0.129 -0.693,-0.129 -1.404,0 -2.794,0.014 -4.175,0.028 -1.381,-0.018 -2.767,-0.028 -4.171,-0.028 -0.245,0 -0.476,0.051 -0.693,0.129 -44.354,1.289 -77.004,12.24 -97.133,32.59 -19.547,19.764 -19.542,40.936 -19.533,41.828 0.014,1.113 0.919,2.005 2.028,2.005 0.009,0 0.014,0 0.018,0 1.118,-0.009 2.018,-0.924 2.009,-2.046 -0.005,-0.203 0.06,-20.498 18.452,-39.024 20.087,-20.239 53.388,-30.789 99.022,-31.389 45.633,0.6 78.939,11.154 99.022,31.389 18.327,18.466 18.452,38.682 18.452,39.024 -0.009,1.118 0.887,2.037 2.009,2.051 0.009,0 0.014,0 0.023,0 1.108,0 2.014,-0.891 2.028,-2.009 0.01,-0.893 0.02,-22.065 -19.532,-41.829 z"
           id="path1336" />
      </g>
      <g
         id="g1344"
         transform="matrix(0.26689801,0,0,0.26689801,253.92617,73.02282)"
         inkscape:export-xdpi="9.269887"
         inkscape:export-ydpi="9.269887"
         inkscape:export-filename="/home/adiala/Documents/mochila-cheia/images/logo.png">
        <path
           style="fill:#ffffff"
           d="m 372.91,203.706 c 0,0 -7.418,0.462 -7.418,4.263 0,3.806 0,11.224 0,12.614 0,1.39 1.575,1.298 2.503,1.298 0.928,0 4.914,0 4.914,0 0,0 3.991,0 4.914,0 0.928,0 2.503,0.092 2.503,-1.298 0,-1.39 0,-8.813 0,-12.614 0,-3.801 -7.422,-4.263 -7.422,-4.263 z"
           id="path1340" />
        <path
           style="fill:#ffffff"
           d="m 378.194,223.216 c 0,-4.078 -1.113,-6.679 -5.191,-6.679 h -0.189 c -4.078,0 -5.191,2.596 -5.191,6.679 l -2.226,24.484 c 0,4.083 3.339,7.418 7.422,7.418 h 0.189 c 4.083,0 7.418,-3.335 7.418,-7.418 L 378.2,223.216 Z m -5.288,-4.762 v 0 c 1.617,0 2.924,1.307 2.924,2.919 0,1.617 -1.307,2.924 -2.924,2.924 -1.612,0 -2.919,-1.307 -2.919,-2.924 0,-1.612 1.307,-2.919 2.919,-2.919 z m 0,33.976 v 0 c -2.919,0 -5.284,-2.365 -5.284,-5.288 0,-2.919 2.365,-5.288 5.284,-5.288 2.919,0 5.289,2.369 5.289,5.288 -10e-4,2.918 -2.366,5.288 -5.289,5.288 z"
           id="path1342" />
      </g>
      <path
         style="fill:#ecf0f1;stroke-width:0.266898"
         d="m 353.96302,132.13405 c 0,0.22446 -0.22794,0.40676 -0.50791,0.40676 -0.27864,0 -0.50657,-0.18363 -0.50657,-0.40676 v -4.7313 c 0,-0.22313 0.22793,-0.40675 0.50657,-0.40675 0.27971,0 0.50791,0.18362 0.50791,0.40675 z"
         id="path1346"
         inkscape:export-xdpi="9.269887"
         inkscape:export-ydpi="9.269887"
         inkscape:export-filename="/home/adiala/Documents/mochila-cheia/images/logo.png" />
      <path
         style="fill:#e97c27;fill-opacity:1;stroke-width:0.266898"
         d="m 289.06784,203.77108 c 0.59304,1.87123 1.90084,3.305 4.74491,3.305 5.85067,0 28.43558,0 28.43931,0 v 0 c 0.005,0 22.58998,0 28.43933,0 2.84379,0 4.15186,-1.43377 4.74491,-3.305 h -66.36953 z"
         id="path1348"
         inkscape:export-xdpi="9.269887"
         inkscape:export-ydpi="9.269887"
         inkscape:export-filename="/home/adiala/Documents/mochila-cheia/images/logo.png" />
      <g
         aria-label="Mochila Cheia"
         id="text1517"
         style="font-style:normal;font-variant:normal;font-weight:normal;font-stretch:normal;font-size:58.9042px;line-height:1;font-family:'Akaya Kanadaka';-inkscape-font-specification:'Akaya Kanadaka';fill:#11616a;fill-opacity:1;stroke:none;stroke-width:1.4726">
        <path
           d="m 409.70731,172.29774 q -2.17946,0 -3.12192,-0.94247 -0.94247,-1.00137 -0.94247,-3.71096 0,-1.82603 0.35342,-4.65343 0.41233,-2.88631 1.2959,-7.89317 1.53151,-9.24796 2.41507,-16.02194 0.53014,-4.2411 0.53014,-7.0685 0,-2.65069 -1.94384,-2.65069 -1.53151,0 -3.71097,1.59041 -2.12055,1.53151 -4.71233,4.94795 -0.82466,1.11918 -1.82603,1.11918 -0.82466,0 -1.47261,-0.76575 -0.58904,-0.82466 -0.58904,-1.82603 0,-0.94247 0.35343,-1.88494 0.41232,-1.00137 1.29589,-2.23836 2.8274,-3.94658 6.30275,-6.06713 3.47535,-2.17945 6.95069,-2.17945 3.23973,0 4.94796,2.06164 1.76712,2.06165 1.76712,6.00823 0,1.59042 -0.29452,3.76987 -0.29452,2.12055 -0.53014,3.47535 -0.23561,1.3548 -0.35342,1.88493 3.35754,-9.60138 7.53974,-13.37125 4.18219,-3.82877 9.18905,-3.82877 3.82877,0 6.00823,2.70959 2.23836,2.70959 2.23836,7.65755 0,1.94383 -0.53014,4.83014 2.94521,-8.12878 6.89179,-11.66303 3.94658,-3.53425 9.07125,-3.53425 4.12329,0 6.30275,2.65069 2.23836,2.65068 2.23836,7.42193 0,2.59178 -0.76576,6.30274 l -3.59315,16.84661 q -0.58904,2.94521 -0.58904,5.06576 0,2.47397 1.11918,3.71096 1.17808,1.23699 3.23973,1.23699 1.94384,0 3.76987,-1.29589 1.88493,-1.29589 4.41781,-4.30001 0.70685,-0.82466 1.59042,-0.82466 0.76575,0 1.17808,0.70685 0.47123,0.70685 0.47123,1.94384 0,2.29727 -1.11918,3.65206 -3.06302,3.71097 -6.06713,5.41919 -3.00411,1.70822 -6.30275,1.70822 -5.00686,0 -7.83426,-2.94521 -2.8274,-3.00411 -2.8274,-8.01097 0,-3.47535 1.4137,-10.07262 l 2.35617,-10.77947 q 0.11781,-0.53014 0.41233,-1.88493 0.29452,-1.3548 0.47123,-2.53288 0.17671,-1.23699 0.17671,-2.41508 0,-2.06164 -0.82465,-3.06301 -0.76576,-1.06028 -2.23836,-1.06028 -2.7685,0 -5.83152,3.59316 -3.00411,3.53425 -5.77261,11.78084 -2.70959,8.24659 -4.41782,21.44113 -0.41233,3.53425 -1.4726,4.77124 -1.00137,1.17808 -3.29864,1.17808 -2.00274,0 -2.94521,-0.94247 -0.88356,-0.94246 -0.88356,-3.53425 0,-2.41507 0.64795,-6.30275 0.64794,-3.94658 1.64931,-9.24796 2.7096,-14.25481 2.7096,-18.37811 0,-2.23836 -0.88357,-3.29863 -0.82465,-1.06028 -2.53288,-1.06028 -2.8863,0 -5.94932,3.29864 -3.06302,3.23973 -6.00823,11.60412 -2.88631,8.3055 -4.83014,22.50141 -0.41233,3.00411 -1.23699,4.1822 -0.76576,1.17808 -3.06302,1.17808 z"
           style="font-style:normal;font-variant:normal;font-weight:normal;font-stretch:normal;font-family:Pacifico;-inkscape-font-specification:Pacifico;fill:#11616a;fill-opacity:1;stroke-width:1.4726"
           id="path554" />
        <path
           d="m 501.47996,153.91963 q 0.76576,0 1.17809,0.76575 0.41233,0.76576 0.41233,1.94384 0,2.8274 -1.70822,3.35754 -3.53426,1.23699 -7.77536,1.4137 -1.11918,4.94796 -4.41781,7.95207 -3.29864,2.94521 -7.48084,2.94521 -3.53425,0 -6.06713,-1.70822 -2.47398,-1.70822 -3.76987,-4.53562 -1.29589,-2.82741 -1.29589,-6.12604 0,-4.47672 1.70822,-7.95207 1.70822,-3.53425 4.71234,-5.47809 3.00411,-2.00274 6.65617,-2.00274 4.47672,0 7.18631,3.12192 2.7685,3.06302 3.23973,7.59864 2.7685,-0.17671 6.59728,-1.17808 0.47123,-0.11781 0.82465,-0.11781 z m -19.32057,12.13427 q 1.88493,0 3.23973,-1.53151 1.4137,-1.53151 1.88493,-4.41782 -1.82603,-1.23699 -2.8274,-3.23973 -0.94247,-2.00274 -0.94247,-4.2411 0,-0.94247 0.17672,-1.88494 h -0.29453 q -2.35616,0 -3.94658,2.29727 -1.53151,2.23836 -1.53151,6.36165 0,3.23973 1.23699,4.94795 1.29589,1.70823 3.00412,1.70823 z"
           style="font-style:normal;font-variant:normal;font-weight:normal;font-stretch:normal;font-family:Pacifico;-inkscape-font-specification:Pacifico;fill:#11616a;fill-opacity:1;stroke-width:1.4726"
           id="path556" />
        <path
           d="m 509.25522,172.29774 q -5.77261,0 -9.01234,-3.23973 -3.18083,-3.29864 -3.18083,-8.65892 0,-4.77124 1.88494,-8.36439 1.88493,-3.59316 4.88904,-5.537 3.00412,-1.94384 6.30275,-1.94384 3.23973,0 5.00686,1.94384 1.82603,1.88493 1.82603,4.88905 0,2.47398 -1.11918,4.1822 -1.06027,1.70822 -2.8274,1.70822 -1.11918,0 -1.82603,-0.53014 -0.64795,-0.53014 -0.64795,-1.4726 0,-0.41233 0.11781,-0.94247 0.11781,-0.53014 0.17671,-0.76576 0.29453,-0.88356 0.29453,-1.64931 0,-0.76576 -0.41233,-1.17809 -0.35343,-0.41233 -1.06028,-0.41233 -1.3548,0 -2.53288,1.23699 -1.17808,1.17809 -1.88494,3.23973 -0.70685,2.06165 -0.70685,4.53563 0,6.83288 5.94933,6.83288 2.41507,0 5.18357,-1.59041 2.8274,-1.64932 5.53699,-4.88905 0.70685,-0.82466 1.59042,-0.82466 0.76575,0 1.17808,0.70685 0.47123,0.70685 0.47123,1.94384 0,2.23836 -1.11918,3.65206 -2.76849,3.41645 -6.65617,5.30138 -3.82877,1.82603 -7.42193,1.82603 z"
           style="font-style:normal;font-variant:normal;font-weight:normal;font-stretch:normal;font-family:Pacifico;-inkscape-font-specification:Pacifico;fill:#11616a;fill-opacity:1;stroke-width:1.4726"
           id="path558" />
        <path
           d="m 552.37299,158.86758 q 0.76575,0 1.17808,0.70685 0.47123,0.70685 0.47123,1.94384 0,2.35617 -1.11918,3.65206 -2.70959,3.12192 -5.5959,5.12467 -2.8274,2.00274 -6.47946,2.00274 -3.00411,0 -4.53562,-1.70822 -1.53151,-1.76713 -1.53151,-5.06576 0,-1.64932 0.82466,-5.89042 0.76575,-3.71097 0.76575,-5.12467 0,-0.94247 -0.64794,-0.94247 -0.76576,0 -2.17946,2.00275 -1.4137,1.94384 -2.8274,5.18357 -1.4137,3.23973 -2.29726,6.83288 -1.11918,4.71234 -5.537,4.71234 -1.76713,0 -2.35617,-1.23699 -0.53014,-1.29589 -0.53014,-4.59453 0,-1.88493 0.0589,-3.00411 l 0.0589,-4.71234 q 0,-9.07124 1.82603,-18.90824 1.88494,-9.83701 5.47809,-16.49318 3.65206,-6.71508 8.71783,-6.71508 2.70959,0 4.35891,2.35617 1.70822,2.29726 1.70822,6.00823 0,5.94932 -3.47535,12.36988 -3.47535,6.36165 -11.30961,14.90276 -0.17671,3.06302 -0.17671,6.30275 1.94384,-5.00686 4.30001,-8.12878 2.41507,-3.18083 4.71233,-4.53562 2.35617,-1.3548 4.30001,-1.3548 3.82877,0 3.82877,3.82877 0,2.29727 -1.29589,8.3055 -1.11918,5.12466 -1.11918,6.77398 0,2.35617 1.70822,2.35617 1.17809,0 2.7685,-1.4137 1.64932,-1.47261 4.35891,-4.71234 0.70685,-0.82466 1.59042,-0.82466 z m -17.49455,-36.40279 q -1.06028,0 -2.35617,3.06301 -1.29589,3.00412 -2.53288,8.18769 -1.17808,5.12466 -1.94384,11.1918 3.65206,-4.30001 6.00823,-9.36577 2.41507,-5.06576 2.41507,-9.18906 0,-1.88493 -0.41233,-2.8863 -0.41233,-1.00137 -1.17808,-1.00137 z"
           style="font-style:normal;font-variant:normal;font-weight:normal;font-stretch:normal;font-family:Pacifico;-inkscape-font-specification:Pacifico;fill:#11616a;fill-opacity:1;stroke-width:1.4726"
           id="path560" />
        <path
           d="m 556.96745,140.66618 q -2.47398,0 -3.71096,-1.11918 -1.23699,-1.17808 -1.23699,-3.23973 0,-2.06164 1.59041,-3.41644 1.64932,-1.4137 4.06439,-1.4137 2.17946,0 3.53425,1.06027 1.3548,1.06028 1.3548,3.00412 0,2.35617 -1.53151,3.76987 -1.53151,1.35479 -4.06439,1.35479 z m -0.47123,31.63156 q -3.82878,0 -5.5959,-2.70959 -1.70822,-2.7096 -1.70822,-7.18632 0,-2.65068 0.64794,-6.77398 0.70685,-4.1822 1.76713,-7.77535 0.53014,-1.88494 1.4137,-2.59179 0.88356,-0.70685 2.8274,-0.70685 3.00412,0 3.00412,2.00274 0,1.47261 -1.11918,6.83289 -1.4137,6.47946 -1.4137,8.77673 0,1.76712 0.47123,2.70959 0.47123,0.94247 1.59041,0.94247 1.06028,0 2.65069,-1.47261 1.59041,-1.4726 4.2411,-4.65343 0.70685,-0.82466 1.59042,-0.82466 0.76575,0 1.17808,0.70685 0.47123,0.70685 0.47123,1.94384 0,2.35617 -1.11918,3.65206 -5.83151,7.12741 -10.89727,7.12741 z"
           style="font-style:normal;font-variant:normal;font-weight:normal;font-stretch:normal;font-family:Pacifico;-inkscape-font-specification:Pacifico;fill:#11616a;fill-opacity:1;stroke-width:1.4726"
           id="path562" />
        <path
           d="m 586.06603,158.86758 q 0.76576,0 1.17809,0.70685 0.47123,0.70685 0.47123,1.94384 0,2.35617 -1.11918,3.65206 -2.53288,3.12192 -5.53699,5.12467 -2.94521,2.00274 -6.71508,2.00274 -5.18357,0 -7.71645,-4.71234 -2.47398,-4.71233 -2.47398,-12.19317 0,-7.18631 1.82603,-16.37536 1.88494,-9.18906 5.47809,-15.78633 3.65206,-6.59727 8.65892,-6.59727 2.8274,0 4.41782,2.65069 1.64931,2.59178 1.64931,7.48083 0,7.0096 -3.88767,16.25756 -3.88768,9.24796 -10.54386,18.31921 0.41233,2.41507 1.3548,3.47535 0.94247,1.00137 2.47398,1.00137 2.41507,0 4.2411,-1.3548 1.82603,-1.4137 4.65343,-4.77124 0.70685,-0.82466 1.59041,-0.82466 z m -7.24521,-36.40279 q -1.3548,0 -3.06302,4.88904 -1.70822,4.88905 -3.00412,12.13427 -1.29589,7.24522 -1.4137,13.90139 4.1822,-6.89179 6.65618,-13.78358 2.47398,-6.9507 2.47398,-12.6644 0,-4.47672 -1.64932,-4.47672 z"
           style="font-style:normal;font-variant:normal;font-weight:normal;font-stretch:normal;font-family:Pacifico;-inkscape-font-specification:Pacifico;fill:#11616a;fill-opacity:1;stroke-width:1.4726"
           id="path564" />
        <path
           d="m 589.12893,172.29774 q -3.35754,0 -5.47809,-2.65069 -2.06165,-2.65069 -2.06165,-6.95069 0,-4.71234 2.17945,-8.89454 2.17946,-4.2411 5.77262,-6.77398 3.65206,-2.59179 7.71645,-2.59179 1.29589,0 1.70822,0.53014 0.47123,0.47123 0.76575,1.76713 1.11918,-0.23562 2.47398,-0.23562 1.4137,0 2.17946,0.70685 0.76575,0.70685 0.76575,2.00274 0,1.3548 -0.58904,4.71234 -0.64795,3.59316 -1.00137,6.89179 -0.35343,3.23973 -0.35343,7.30412 0,2.23836 -0.94247,3.23973 -0.88356,0.94247 -2.94521,0.94247 -2.00274,0 -3.00411,-0.94247 -0.94247,-1.00137 -0.94247,-3.18082 l 0.0589,-0.94247 q -1.82603,5.06576 -6.30275,5.06576 z m 2.29726,-5.94932 q 1.64932,0 3.00412,-2.29727 1.35479,-2.29726 2.41507,-8.18768 l 1.11918,-5.94933 q -2.41508,0.0589 -4.47672,1.88494 -2.06165,1.76712 -3.29864,4.71233 -1.23699,2.94521 -1.23699,6.24385 0,1.76713 0.64795,2.70959 0.70685,0.88357 1.82603,0.88357 z"
           style="font-style:normal;font-variant:normal;font-weight:normal;font-stretch:normal;font-family:Pacifico;-inkscape-font-specification:Pacifico;fill:#11616a;fill-opacity:1;stroke-width:1.4726"
           id="path566" />
        <path
           d="m 648.79875,172.29774 q -7.0096,0 -12.19317,-2.53288 -5.18357,-2.59178 -7.95207,-7.30412 -2.7685,-4.71234 -2.7685,-10.95618 0,-8.65892 3.23973,-15.374 3.29864,-6.71508 8.89454,-10.36714 5.5959,-3.71096 12.42878,-3.71096 6.36166,0 9.66029,3.29863 3.29864,3.23973 3.29864,8.60002 0,3.59315 -1.29589,5.77261 -1.23699,2.17945 -3.59316,2.17945 -1.64932,0 -2.59179,-0.76575 -0.94246,-0.76576 -0.94246,-2.23836 0,-0.53014 0.23561,-1.94384 0.35343,-1.76713 0.35343,-2.8274 0,-5.36028 -5.71371,-5.36028 -3.88768,0 -7.42193,2.53288 -3.53425,2.53288 -5.71371,7.48083 -2.17945,4.88905 -2.17945,11.66303 0,7.06851 3.94658,10.95618 3.94658,3.82878 11.66303,3.82878 3.82878,0 7.71645,-0.94247 3.94658,-1.00137 8.71782,-3.00412 0.88357,-0.35342 1.47261,-0.35342 0.94247,0 1.4137,0.70685 0.47123,0.70685 0.47123,1.82603 0,3.59316 -3.88767,5.30138 -4.1822,1.82603 -8.71782,2.70959 -4.47672,0.82466 -8.54111,0.82466 z"
           style="font-style:normal;font-variant:normal;font-weight:normal;font-stretch:normal;font-family:Pacifico;-inkscape-font-specification:Pacifico;fill:#11616a;fill-opacity:1;stroke-width:1.4726"
           id="path568" />
        <path
           d="m 698.04261,158.86758 q 0.76575,0 1.17808,0.70685 0.47124,0.70685 0.47124,1.94384 0,2.35617 -1.11918,3.65206 -2.7096,3.12192 -5.5959,5.12467 -2.8274,2.00274 -6.47946,2.00274 -3.00412,0 -4.53563,-1.70822 -1.53151,-1.76713 -1.53151,-5.06576 0,-1.64932 0.82466,-5.89042 0.76576,-3.71097 0.76576,-5.12467 0,-0.94247 -0.64795,-0.94247 -0.76575,0 -2.17945,2.00275 -1.41371,1.94384 -2.82741,5.18357 -1.4137,3.23973 -2.29726,6.83288 -1.11918,4.71234 -5.53699,4.71234 -1.76713,0 -2.35617,-1.23699 -0.53014,-1.29589 -0.53014,-4.59453 0,-1.88493 0.0589,-3.00411 l 0.0589,-4.71234 q 0,-9.07124 1.82603,-18.90824 1.88493,-9.83701 5.47809,-16.49318 3.65206,-6.71508 8.71782,-6.71508 2.70959,0 4.35891,2.35617 1.70822,2.29726 1.70822,6.00823 0,5.94932 -3.47534,12.36988 -3.47535,6.36165 -11.30961,14.90276 -0.17671,3.06302 -0.17671,6.30275 1.94383,-5.00686 4.3,-8.12878 2.41507,-3.18083 4.71234,-4.53562 2.35617,-1.3548 4.30001,-1.3548 3.82877,0 3.82877,3.82877 0,2.29727 -1.29589,8.3055 -1.11918,5.12466 -1.11918,6.77398 0,2.35617 1.70822,2.35617 1.17808,0 2.7685,-1.4137 1.64931,-1.47261 4.35891,-4.71234 0.70685,-0.82466 1.59041,-0.82466 z m -17.49455,-36.40279 q -1.06027,0 -2.35617,3.06301 -1.29589,3.00412 -2.53288,8.18769 -1.17808,5.12466 -1.94384,11.1918 3.65207,-4.30001 6.00823,-9.36577 2.41508,-5.06576 2.41508,-9.18906 0,-1.88493 -0.41233,-2.8863 -0.41233,-1.00137 -1.17809,-1.00137 z"
           style="font-style:normal;font-variant:normal;font-weight:normal;font-stretch:normal;font-family:Pacifico;-inkscape-font-specification:Pacifico;fill:#11616a;fill-opacity:1;stroke-width:1.4726"
           id="path570" />
        <path
           d="m 721.19188,158.86758 q 0.76575,0 1.17808,0.70685 0.47123,0.70685 0.47123,1.94384 0,2.35617 -1.11918,3.65206 -2.17945,2.65069 -6.18494,4.88905 -3.94658,2.23836 -8.4822,2.23836 -6.18494,0 -9.60139,-3.35754 -3.41644,-3.35754 -3.41644,-9.18905 0,-4.06439 1.70822,-7.53974 1.70822,-3.53425 4.71234,-5.5959 3.06302,-2.06165 6.89179,-2.06165 3.41644,0 5.47809,2.06165 2.06165,2.00274 2.06165,5.47809 0,4.06439 -2.94521,7.0096 -2.88631,2.88631 -9.83701,4.59453 1.47261,2.70959 5.5959,2.70959 2.65069,0 6.00823,-1.82603 3.41645,-1.88493 5.89042,-4.88905 0.70685,-0.82466 1.59042,-0.82466 z m -14.84386,-8.54111 q -2.17946,0 -3.71097,2.53288 -1.4726,2.53288 -1.4726,6.12604 v 0.11781 q 3.47535,-0.82466 5.47809,-2.47398 2.00274,-1.64931 2.00274,-3.82877 0,-1.11918 -0.64794,-1.76713 -0.58905,-0.70685 -1.64932,-0.70685 z"
           style="font-style:normal;font-variant:normal;font-weight:normal;font-stretch:normal;font-family:Pacifico;-inkscape-font-specification:Pacifico;fill:#11616a;fill-opacity:1;stroke-width:1.4726"
           id="path572" />
        <path
           d="m 725.78641,140.66618 q -2.47398,0 -3.71097,-1.11918 -1.23699,-1.17808 -1.23699,-3.23973 0,-2.06164 1.59042,-3.41644 1.64931,-1.4137 4.06439,-1.4137 2.17945,0 3.53425,1.06027 1.35479,1.06028 1.35479,3.00412 0,2.35617 -1.5315,3.76987 -1.53151,1.35479 -4.06439,1.35479 z m -0.47124,31.63156 q -3.82877,0 -5.5959,-2.70959 -1.70822,-2.7096 -1.70822,-7.18632 0,-2.65068 0.64795,-6.77398 0.70685,-4.1822 1.76712,-7.77535 0.53014,-1.88494 1.4137,-2.59179 0.88357,-0.70685 2.82741,-0.70685 3.00411,0 3.00411,2.00274 0,1.47261 -1.11918,6.83289 -1.4137,6.47946 -1.4137,8.77673 0,1.76712 0.47123,2.70959 0.47124,0.94247 1.59042,0.94247 1.06027,0 2.65069,-1.47261 1.59041,-1.4726 4.2411,-4.65343 0.70685,-0.82466 1.59041,-0.82466 0.76576,0 1.17809,0.70685 0.47123,0.70685 0.47123,1.94384 0,2.35617 -1.11918,3.65206 -5.83152,7.12741 -10.89728,7.12741 z"
           style="font-style:normal;font-variant:normal;font-weight:normal;font-stretch:normal;font-family:Pacifico;-inkscape-font-specification:Pacifico;fill:#11616a;fill-opacity:1;stroke-width:1.4726"
           id="path574" />
        <path
           d="m 739.33426,172.29774 q -3.35754,0 -5.47809,-2.65069 -2.06164,-2.65069 -2.06164,-6.95069 0,-4.71234 2.17945,-8.89454 2.17946,-4.2411 5.77261,-6.77398 3.65206,-2.59179 7.71645,-2.59179 1.2959,0 1.70823,0.53014 0.47123,0.47123 0.76575,1.76713 1.11918,-0.23562 2.47398,-0.23562 1.4137,0 2.17945,0.70685 0.76576,0.70685 0.76576,2.00274 0,1.3548 -0.58904,4.71234 -0.64795,3.59316 -1.00138,6.89179 -0.35342,3.23973 -0.35342,7.30412 0,2.23836 -0.94247,3.23973 -0.88356,0.94247 -2.94521,0.94247 -2.00274,0 -3.00411,-0.94247 -0.94247,-1.00137 -0.94247,-3.18082 l 0.0589,-0.94247 q -1.82603,5.06576 -6.30275,5.06576 z m 2.29727,-5.94932 q 1.64932,0 3.00411,-2.29727 1.3548,-2.29726 2.41507,-8.18768 l 1.11918,-5.94933 q -2.41507,0.0589 -4.47671,1.88494 -2.06165,1.76712 -3.29864,4.71233 -1.23699,2.94521 -1.23699,6.24385 0,1.76713 0.64795,2.70959 0.70685,0.88357 1.82603,0.88357 z"
           style="font-style:normal;font-variant:normal;font-weight:normal;font-stretch:normal;font-family:Pacifico;-inkscape-font-specification:Pacifico;fill:#11616a;fill-opacity:1;stroke-width:1.4726"
           id="path576" />
      </g>
    </g>
  </g>
</svg>
