<?xml version="1.0" encoding="UTF-8" standalone="no"?>
<svg
   xmlns:dc="http://purl.org/dc/elements/1.1/"
   xmlns:cc="http://creativecommons.org/ns#"
   xmlns:rdf="http://www.w3.org/1999/02/22-rdf-syntax-ns#"
   xmlns:svg="http://www.w3.org/2000/svg"
   xmlns="http://www.w3.org/2000/svg"
   xmlns:sodipodi="http://sodipodi.sourceforge.net/DTD/sodipodi-0.dtd"
   xmlns:inkscape="http://www.inkscape.org/namespaces/inkscape"
   id="b2cac8c7-99a7-498b-9b00-d1bcd66eb524"
   data-name="Layer 1"
   width="291.07327"
   height="388.61877"
   viewBox="0 0 291.07328 388.61877"
   version="1.1"
   sodipodi:docname="undraw_Gift_box_re_vau4.svg"
   inkscape:version="1.0.2 (e86c870879, 2021-01-15)">
  <metadata
     id="metadata1024">
    <rdf:RDF>
      <cc:Work
         rdf:about="">
        <dc:format>image/svg+xml</dc:format>
        <dc:type
           rdf:resource="http://purl.org/dc/dcmitype/StillImage" />
        <dc:title></dc:title>
      </cc:Work>
    </rdf:RDF>
  </metadata>
  <defs
     id="defs1022" />
  <sodipodi:namedview
     pagecolor="#ffffff"
     bordercolor="#666666"
     borderopacity="1"
     objecttolerance="10"
     gridtolerance="10"
     guidetolerance="10"
     inkscape:pageopacity="0"
     inkscape:pageshadow="2"
     inkscape:window-width="1920"
     inkscape:window-height="1016"
     id="namedview1020"
     showgrid="false"
     fit-margin-top="0"
     fit-margin-left="0"
     fit-margin-right="0"
     fit-margin-bottom="0"
     inkscape:zoom="1.1946951"
     inkscape:cx="-109.06249"
     inkscape:cy="71.102975"
     inkscape:window-x="1920"
     inkscape:window-y="27"
     inkscape:window-maximized="1"
     inkscape:current-layer="b2cac8c7-99a7-498b-9b00-d1bcd66eb524" />
  <rect
     x="55.05872"
     y="57.927357"
     width="45.27441"
     height="45.274441"
     transform="rotate(-30)"
     fill="#ff6584"
     id="rect971" />
  <path
     d="m 116.35252,70.017946 -23.6377,-40.94141 40.94141,-23.6372104 23.6377,40.9419004 z m -20.90527,-40.209 21.63769,37.47656 37.47658,-21.63671 -21.63769,-37.4770504 z"
     fill="#2f2e41"
     id="path973" />
  <circle
     cx="79.672859"
     cy="161.03455"
     r="19"
     fill="#d0cde1"
     id="circle975" />
  <path
     d="m 93.67285,181.03455 a 20,20 0 1 1 20,-20 20,20 0 0 1 -20,20 z m 0,-38 a 18,18 0 1 0 18,18 18,18 0 0 0 -18,-18 z"
     fill="#2f2e41"
     id="path977" />
  <path
     d="m 199.5347,382.61487 h -184 a 8.50982,8.50982 0 0 1 -8.5,-8.5 v -171 a 8.50982,8.50982 0 0 1 8.5,-8.5 h 184 a 8.50982,8.50982 0 0 1 8.5,8.5 v 171 a 8.50982,8.50982 0 0 1 -8.5,8.5 z"
     fill="#6c63ff"
     id="path979"
     style="fill:#f1b42a;fill-opacity:1" />
  <path
     d="m 120.53324,388.61878 h -26 a 8.50981,8.50981 0 0 1 -8.5,-8.5 v -182.084 a 8.50981,8.50981 0 0 1 8.5,-8.5 h 26 a 8.50982,8.50982 0 0 1 8.5,8.5 v 182.084 a 8.50982,8.50982 0 0 1 -8.5,8.5 z"
     fill="#3f3d56"
     id="path981"
     style="fill:#2b626a;fill-opacity:1" />
  <path
     d="m 248.42126,177.68762 c -1.075,17.64038 -24.9038,30.54175 -24.9038,30.54175 0,0 -22.086,-15.69934 -21.011,-33.33972 1.075,-17.64038 24.90381,-30.54175 24.90381,-30.54175 0,0 22.08595,15.69934 21.01099,33.33972 z"
     fill="#3f3d56"
     id="path983"
     style="fill:#2b626a;fill-opacity:1" />
  <path
     d="m 249.50052,232.72669 c -17.64368,-1.0199 -30.61939,-24.80835 -30.61939,-24.80835 0,0 15.63037,-22.13489 33.274,-21.115 17.64363,1.01989 30.61939,24.80836 30.61939,24.80836 0,0 -15.63035,22.13488 -33.274,21.11499 z"
     fill="#3f3d56"
     id="path985"
     style="fill:#2b626a;fill-opacity:1" />
  <polygon
     points="680.04,497.049 729.5,497.049 744.97,517.469 744.97,582.749 "
     opacity="0.1"
     style="isolation:isolate"
     id="polygon987"
     transform="translate(-537.43554,-301.93396)" />
  <path
     d="m 262.65677,327.27991 a 8.489,8.489 0 0 1 -6.78467,-3.36328 L 120.59769,145.37561 a 8.5,8.5 0 0 1 1.6416,-11.9082 l 19.92676,-15.09766 a 8.49846,8.49846 0 0 1 11.90771,1.64258 l 135.27442,178.54008 a 8.5,8.5 0 0 1 -1.6416,11.9082 l -19.92676,15.09762 a 8.45354,8.45354 0 0 1 -5.12305,1.72168 z"
     fill="#6c63ff"
     id="path989"
     style="fill:#f1b42a;fill-opacity:1" />
  <rect
     x="9.3300085"
     y="276.20206"
     width="43"
     height="43"
     transform="rotate(-37.15004)"
     fill="#3f3d56"
     id="rect991"
     style="fill:#2b626a;fill-opacity:1" />
  <rect
     x="-92.905434"
     y="46.099754"
     width="45.274441"
     height="45.27441"
     transform="rotate(-75)"
     fill="#d0cde1"
     id="rect993" />
  <path
     d="M 45.66309,119.92712 0,107.69177 12.23535,62.027706 57.89844,74.263056 Z m -43.21387,-13.64941 41.7998,11.2002 11.2002,-41.800794 -41.79981,-11.20019 z"
     fill="#2f2e41"
     id="path995" />
</svg>
